<svg width="750" height="500" viewBox="0 0 750 500" fill="none" xmlns="http://www.w3.org/2000/svg">
<path d="M750 0H0V500H750V0Z" fill="#2C285B"/>
<path opacity="0.8" d="M750 0H0V500H750V0Z" fill="url(#paint0_linear_22_293)"/>
<g opacity="0.2">
<path d="M63.016 223.752C63.016 223.752 63.654 223.525 64.891 223.085C65.51 222.865 66.278 222.592 67.19 222.268C68.109 221.957 69.196 221.648 70.431 221.281C72.906 220.553 75.974 219.773 79.679 219.094C83.378 218.433 87.706 217.806 92.631 217.648C97.555 217.429 103.073 217.646 109.067 218.462C115.071 219.237 121.501 220.8 128.17 223.096C134.868 225.35 141.688 228.559 148.567 232.407C152.003 234.335 155.434 236.471 158.821 238.791C162.226 241.095 165.624 243.557 168.987 246.171C182.472 256.626 195.405 269.465 208.119 283.228C220.85 296.977 233.384 311.762 246.57 325.749C253.167 332.726 259.914 339.508 266.946 345.598C270.445 348.661 274.015 351.546 277.651 354.182C279.659 355.596 281.671 357.014 283.688 358.435L286.903 360.706C287.96 361.436 289.096 362.3 290.05 362.854C292.034 364.093 294.018 365.335 295.986 366.606L298.943 368.508C299.942 369.138 301.04 369.722 302.085 370.332C304.196 371.543 306.31 372.756 308.426 373.97L310.01 374.884L311.634 375.716L314.881 377.383C317.057 378.472 319.186 379.67 321.399 380.681L328.048 383.69C329.158 384.189 330.252 384.726 331.374 385.196L334.77 386.532L341.556 389.221C359.851 395.872 378.975 400.352 398.424 402.876C417.891 405.311 437.594 406.066 456.919 405.856C458.126 405.849 459.331 405.842 460.533 405.835L460.759 405.834C460.925 405.828 460.109 405.889 460.566 405.858L461.034 405.837L461.968 405.796L463.834 405.722L465.696 405.651L466.619 405.615L467.452 405.566C468.562 405.502 469.671 405.438 470.776 405.375C475.277 405.091 480.016 404.669 484.626 404.247C493.914 403.324 503.177 402.224 512.303 401.166C530.558 399.038 548.276 397.133 564.912 396.654C573.228 396.443 581.255 396.435 588.907 396.88C596.561 397.358 603.843 398.151 610.615 399.354C612.304 399.679 613.967 399.999 615.601 400.313C617.23 400.659 618.828 401.064 620.39 401.427C621.17 401.613 621.943 401.797 622.709 401.98C623.47 402.198 624.225 402.415 624.971 402.629C626.454 403.074 627.909 403.511 629.333 403.939C634.979 405.889 640.071 407.822 644.437 410.105C645.529 410.654 646.592 411.189 647.625 411.71C648.627 412.288 649.601 412.851 650.544 413.396C651.475 413.95 652.376 414.486 653.248 415.004C654.104 415.549 654.902 416.128 655.683 416.655C656.456 417.189 657.2 417.702 657.914 418.196C658.27 418.441 658.618 418.682 658.958 418.918C659.284 419.178 659.603 419.433 659.913 419.682C661.143 420.68 662.26 421.586 663.26 422.399C664.273 423.175 665.071 424 665.783 424.668C666.485 425.342 667.077 425.908 667.554 426.365C668.498 427.272 668.986 427.741 668.986 427.741C668.986 427.741 668.371 427.454 667.178 426.898C666.585 426.623 665.85 426.281 664.977 425.875C664.094 425.488 663.132 424.958 661.946 424.523C657.334 422.579 650.46 420.096 641.59 418.263C637.167 417.319 632.199 416.681 626.838 416.189C621.42 415.91 615.633 415.598 609.394 415.926C596.947 416.394 582.959 418.309 567.709 421.42C552.447 424.481 535.926 428.706 518.002 433.066C509.032 435.237 499.702 437.444 489.905 439.403C487.437 439.876 484.955 440.351 482.461 440.829C481.197 441.044 479.93 441.259 478.659 441.475C477.396 441.693 476.121 441.909 474.756 442.101C473.412 442.298 472.067 442.496 470.717 442.694L469.703 442.841L468.775 442.961L466.926 443.197L465.073 443.432L464.145 443.545L463.68 443.602C463.982 443.584 463.002 443.658 463.02 443.657L462.779 443.677C461.488 443.785 460.194 443.895 458.897 444.004C438.187 445.859 416.323 446.421 393.898 444.438C371.495 442.393 348.57 437.531 326.656 429.549C315.813 425.296 305.038 420.751 294.946 415.09L291.129 413.034L289.223 412.006L287.374 410.894C284.923 409.39 282.476 407.888 280.032 406.389C278.811 405.623 277.593 404.918 276.375 404.104L272.729 401.612C270.313 399.938 267.901 398.266 265.495 396.598C264.224 395.743 263.299 394.966 262.229 394.158L259.111 391.755L256.001 389.358L254.448 388.161L253.675 387.559L252.974 387.019L252.545 386.665C247.928 382.917 243.625 379.019 239.565 375.058C231.477 367.096 224.361 358.887 217.812 350.728C204.733 334.397 193.735 318.342 183.143 303.676C172.595 288.994 162.504 275.665 152.265 264.488C142.049 253.311 131.625 244.352 121.253 238.107C110.934 231.741 100.71 228.19 91.915 226.21C87.515 225.202 83.467 224.7 79.908 224.293C78.129 224.14 76.467 223.97 74.941 223.917C73.413 223.833 72.011 223.737 70.771 223.741C69.515 223.721 68.404 223.702 67.446 223.687C66.478 223.701 65.663 223.713 65.007 223.723C63.693 223.742 63.016 223.752 63.016 223.752Z" fill="#2C285B"/>
</g>
<g opacity="0.35">
<path d="M277.505 72.26C277.505 72.26 277.767 72.629 278.275 73.344C278.525 73.703 278.835 74.149 279.204 74.679C279.388 74.945 279.585 75.231 279.798 75.538C280.022 75.829 280.261 76.14 280.515 76.47C282.444 79.091 285.602 82.79 289.854 86.933C294.117 91.09 299.724 95.591 306.42 100.155C309.809 102.406 313.465 104.678 317.392 106.921C321.335 109.146 325.557 111.326 330.012 113.443C338.918 117.67 348.848 121.596 359.4 124.753C360.718 125.129 362.046 125.507 363.382 125.887C364.714 126.237 366.055 126.588 367.404 126.942C370.104 127.582 372.821 128.211 375.538 128.72C376.217 128.848 376.896 128.975 377.579 129.103C378.256 129.207 378.934 129.311 379.614 129.416C380.976 129.651 382.31 129.796 383.658 129.982C384.33 130.071 384.987 130.112 385.652 130.181L386.647 130.277L386.895 130.301C387.054 130.323 385.93 130.156 386.479 130.231L386.632 130.24L387.242 130.278C388.871 130.386 390.508 130.495 392.15 130.604C392.971 130.662 393.795 130.719 394.619 130.776L395.847 130.857L396.936 130.872C398.388 130.893 399.841 130.914 401.295 130.962C404.117 131.105 407.36 130.992 410.442 131.006C416.686 130.979 423.059 130.669 429.504 130.308C442.411 129.506 455.694 128.009 469.162 126.292C482.635 124.594 496.301 122.63 509.988 120.855C513.426 120.423 516.848 119.993 520.255 119.565C523.693 119.175 527.112 118.787 530.512 118.401L531.921 118.245L533.183 118.124L535.7 117.889C537.365 117.731 539.025 117.575 540.68 117.418C544.014 117.087 547.363 116.827 550.7 116.546C564.067 115.468 577.436 114.868 590.362 115.436C603.267 115.957 615.792 117.819 627.042 121.091C632.671 122.756 637.964 124.817 642.814 127.125C644.013 127.731 645.198 128.331 646.367 128.921C647.526 129.52 648.633 130.216 649.731 130.847C650.277 131.169 650.819 131.488 651.356 131.805C651.88 132.15 652.401 132.492 652.918 132.832C653.936 133.521 654.937 134.2 655.923 134.868C663.643 140.503 669.188 146.604 673.021 151.927C675.002 154.541 676.436 157.097 677.718 159.236C678.876 161.477 679.855 163.34 680.537 164.911C681.867 168.076 682.486 169.755 682.486 169.755C682.486 169.755 681.056 168.589 678.544 166.419C677.937 165.86 677.154 165.327 676.358 164.699C675.565 164.078 674.7 163.401 673.765 162.669C672.795 161.998 671.752 161.278 670.64 160.509C669.577 159.708 668.345 158.985 667.082 158.206C666.454 157.82 665.808 157.424 665.146 157.018C664.464 156.65 663.766 156.273 663.051 155.887C662.348 155.502 661.628 155.109 660.893 154.707C660.134 154.354 659.359 153.993 658.567 153.625C655.444 152.131 651.946 150.862 648.267 149.642C644.499 148.571 640.545 147.55 636.275 146.903C632.007 146.259 627.514 145.816 622.778 145.667C613.28 145.432 602.916 146.168 591.746 147.813C580.582 149.418 568.673 151.791 556.006 154.376C552.812 155.023 549.592 155.675 546.348 156.332C543.108 156.968 539.843 157.608 536.559 158.253C533.273 158.903 529.965 159.557 526.642 160.214C523.291 160.856 519.923 161.501 516.542 162.148C502.961 164.7 488.916 167.117 474.561 168.948C460.206 170.746 445.537 171.964 430.839 172.022C427.149 171.959 423.498 172.004 419.83 171.843C417.996 171.75 416.166 171.658 414.342 171.565L411.612 171.424L408.877 171.199C407.059 171.029 405.246 170.859 403.438 170.69C401.667 170.546 399.77 170.292 397.895 170.042C396.027 169.784 394.166 169.527 392.313 169.271L390.928 169.072L389.696 168.843C388.885 168.689 388.074 168.536 387.264 168.383C385.648 168.071 384.037 167.761 382.434 167.453L381.833 167.334L381.684 167.304C382.132 167.367 380.908 167.186 380.966 167.188L380.614 167.105L379.211 166.772C378.282 166.545 377.338 166.339 376.432 166.091C372.794 165.122 369.27 164.051 365.919 162.819C362.537 161.638 359.306 160.31 356.16 158.936C354.606 158.226 353.061 157.52 351.527 156.82C350.028 156.069 348.537 155.322 347.057 154.581C335.336 148.503 325.144 141.517 316.447 134.236C312.099 130.596 308.12 126.898 304.538 123.181C300.962 119.453 297.77 115.732 294.96 112.099C293.587 110.239 292.239 108.491 291.064 106.679C290.469 105.782 289.866 104.929 289.319 104.049C288.784 103.163 288.26 102.294 287.746 101.443C286.715 99.755 285.845 98.04 284.968 96.47C284.159 94.835 283.407 93.286 282.759 91.78C282.14 90.252 281.496 88.867 281.022 87.485C280.553 86.101 280.078 84.845 279.741 83.622C279.399 82.403 279.075 81.295 278.808 80.271C278.591 79.222 278.394 78.269 278.218 77.416C278.134 76.997 278.055 76.602 277.981 76.232C277.935 75.862 277.891 75.516 277.851 75.196C277.773 74.555 277.707 74.016 277.654 73.582C277.555 72.71 277.505 72.26 277.505 72.26Z" fill="#2C285B"/>
</g>
<g opacity="0.2">
<path d="M238.507 163.754C238.507 163.754 237.498 163.485 235.689 162.888C234.783 162.592 233.667 162.223 232.391 161.75C231.096 161.296 229.64 160.748 228.029 160.116C226.395 159.514 224.658 158.756 222.748 157.982C220.831 157.219 218.808 156.343 216.675 155.397C214.527 154.494 212.287 153.48 209.955 152.432C207.606 151.447 205.207 150.28 202.707 149.23C197.739 146.996 192.47 144.86 187.119 142.784C181.743 140.793 176.244 139.08 170.67 137.695C165.107 136.264 159.36 135.43 153.435 134.774C152.69 134.706 151.946 134.64 151.205 134.546L150.092 134.413L148.947 134.357C147.419 134.292 145.894 134.202 144.371 134.071L144.085 134.048L143.943 134.037C145.53 134.124 144.333 134.061 144.665 134.081L144.578 134.08L143.882 134.074L142.49 134.061C142.276 134.061 141.985 134.051 141.834 134.06L141.336 134.079L140.342 134.091C139.753 134.085 138.809 134.12 138.023 134.136C137.215 134.15 136.374 134.179 135.511 134.217C128.691 134.406 121.26 134.697 113.9 134.714C106.5 134.753 99.055 134.501 91.77 133.923C77.208 132.775 63.205 130.128 51.427 125.758C45.547 123.588 40.239 120.996 35.799 118.149C34.69 117.483 33.632 116.716 32.636 115.981C32.142 115.616 31.657 115.258 31.18 114.907C30.713 114.533 30.264 114.129 29.826 113.755C28.956 112.978 28.124 112.317 27.375 111.547C26.618 110.803 25.942 110.047 25.307 109.358C22.798 106.462 21.34 103.873 20.548 102.069C19.794 100.216 19.517 99.257 19.517 99.257C19.517 99.257 20.469 99.6 22.254 100.243C22.663 100.414 23.173 100.539 23.72 100.673C24.245 100.813 24.819 100.966 25.439 101.13C26.022 101.314 26.743 101.385 27.442 101.518C28.153 101.638 28.852 101.805 29.648 101.886C32.782 102.286 36.519 102.403 40.731 102.259C44.949 102.116 49.679 101.688 54.857 101.054C65.211 99.788 77.342 97.718 90.667 95.741C97.333 94.76 104.292 93.769 111.521 92.975C118.791 92.181 126.218 91.493 134.278 91.242C135.275 91.216 136.294 91.198 137.346 91.196C138.42 91.194 139.336 91.171 140.606 91.195L142.399 91.225L143.295 91.253L144.031 91.293L145.421 91.377L146.115 91.419L147.097 91.475L147.3 91.499L147.705 91.549C152.032 92.065 156.316 92.643 160.578 93.656C169.064 95.549 177.35 98.403 184.705 102.282C192.079 106.1 198.596 110.614 204.11 115.337C205.481 116.524 206.775 117.73 208.046 118.927C208.676 119.527 209.317 120.109 209.92 120.707C210.516 121.307 211.088 121.925 211.662 122.526C212.798 123.739 213.944 124.899 214.982 126.102C216.008 127.308 217.018 128.476 217.974 129.653C218.95 130.816 219.86 131.965 220.709 133.123C221.57 134.271 222.412 135.384 223.206 136.494C224.779 138.708 226.192 140.85 227.504 142.879C230.062 146.962 232.146 150.618 233.756 153.712C234.573 155.251 235.286 156.638 235.869 157.879C236.473 159.099 236.957 160.169 237.348 161.04C238.133 162.778 238.507 163.754 238.507 163.754Z" fill="#2C285B"/>
</g>
<g opacity="0.2">
<path d="M568.49 330.246C568.49 330.246 568.863 329.517 569.619 328.259C569.995 327.627 570.462 326.853 571.035 325.989C571.625 325.108 572.188 324.098 573.096 323.071C573.951 321.995 574.972 320.881 576.119 319.633C577.266 318.327 578.568 317.19 580.009 315.921C580.726 315.283 581.484 314.646 582.276 313.993C583.075 313.352 583.94 312.776 584.826 312.152C585.713 311.524 586.644 310.916 587.608 310.284C588.569 309.643 589.61 309.138 590.665 308.551C591.723 307.97 592.824 307.42 593.957 306.848C595.102 306.335 596.292 305.864 597.512 305.37C599.948 304.329 602.551 303.598 605.274 302.84C610.704 301.492 616.675 300.592 622.735 300.579C623.499 300.569 624.264 300.56 625.034 300.551C625.793 300.568 626.551 300.596 627.313 300.642C628.83 300.739 630.393 300.788 631.917 300.941C633.434 301.129 634.96 301.318 636.493 301.508C638.034 301.705 639.499 302.041 641.019 302.309C647.019 303.511 652.887 305.22 658.363 307.313C663.846 309.413 669.083 311.811 673.901 314.387C678.744 316.944 683.26 319.72 687.424 322.481C691.61 325.261 695.469 328.07 699.046 330.805C699.937 331.495 700.825 332.159 701.683 332.863C702.537 333.54 703.39 334.178 704.211 334.864C705.871 336.226 707.453 337.478 708.982 338.777C710.51 340.065 711.973 341.248 713.376 342.48C714.778 343.662 716.12 344.78 717.391 345.909C718.665 346.994 719.878 347.988 721.001 349.012C722.126 350.042 723.201 350.828 724.161 351.712C725.132 352.537 726.009 353.333 726.786 353.981C727.566 354.622 728.236 355.213 728.785 355.698C729.884 356.662 730.481 357.246 730.481 357.246C730.481 357.246 729.762 357.611 728.393 358.166C727.707 358.447 726.855 358.786 725.845 359.131C724.825 359.527 723.675 359.82 722.361 360.165C719.72 360.891 716.513 361.477 712.789 361.899C710.952 362.068 708.972 362.215 706.901 362.279C704.859 362.307 702.666 362.325 700.443 362.212C698.229 362.094 695.882 361.948 693.551 361.661C691.187 361.401 688.783 361.059 686.362 360.627C681.491 359.783 676.527 358.622 671.606 357.252C666.662 355.868 661.782 354.322 657.012 352.634C652.233 350.933 647.613 349.219 643.122 347.517C638.637 345.769 634.345 344.153 630.202 342.619C626.052 341.055 622.097 339.675 618.239 338.407C614.371 337.074 610.631 336.076 606.904 335.081C605.054 334.685 603.192 334.132 601.369 333.827C600.453 333.638 599.541 333.461 598.626 333.244C597.722 333.104 596.825 332.981 595.925 332.815C595.028 332.673 594.13 332.484 593.25 332.372C592.371 332.267 591.504 332.175 590.637 332.05C589.76 331.934 588.905 331.821 588.074 331.71C587.243 331.647 586.423 331.581 585.611 331.498C584.003 331.361 582.4 331.154 581.006 331.067C579.578 330.956 578.234 330.884 576.951 330.75C576.631 330.723 576.319 330.696 576.016 330.67C575.704 330.668 575.403 330.666 575.109 330.664C574.512 330.643 573.954 330.625 573.433 330.606C572.397 330.58 571.495 330.517 570.762 330.463C569.301 330.359 568.49 330.246 568.49 330.246Z" fill="#2C285B"/>
</g>
<g opacity="0.1">
<path d="M42.666 371.67C42.666 371.67 43.206 371.406 44.221 370.965C44.719 370.729 45.371 370.509 46.163 370.259C46.963 369.975 47.869 369.772 48.914 369.53C50.996 369.092 53.615 368.773 56.656 368.842C59.688 368.926 63.141 369.379 66.76 370.379C70.384 371.362 74.179 372.851 77.923 374.801C81.686 376.736 85.393 379.125 88.983 381.809C92.562 384.499 96.016 387.489 99.299 390.633C100.927 392.216 102.539 393.816 104.093 395.448C104.876 396.255 105.644 397.075 106.398 397.894L107.511 399.089L108.077 399.697C108.279 399.925 108.381 400.01 108.537 400.174L109.402 401.06L110.404 402.02C111.076 402.66 111.753 403.301 112.463 403.915C113.851 405.174 115.342 406.349 116.824 407.532C119.825 409.863 122.98 412.029 126.163 414.038C129.34 416.059 132.565 417.88 135.697 419.57C138.832 421.259 141.898 422.765 144.791 424.126C147.685 425.48 150.408 426.693 152.874 427.728C155.338 428.779 157.546 429.632 159.393 430.369C161.27 431.092 162.746 431.659 163.751 432.047C164.781 432.452 165.331 432.669 165.331 432.669C165.331 432.669 164.78 432.888 163.728 433.249C163.201 433.434 162.549 433.635 161.776 433.848C161.002 434.083 160.109 434.296 159.099 434.521C155.068 435.43 149.153 436.196 142.002 435.843C138.433 435.661 134.561 435.212 130.516 434.367C126.472 433.521 122.236 432.334 117.973 430.658C113.703 429.004 109.401 426.876 105.235 424.235C103.153 422.91 101.1 421.477 99.122 419.88C98.131 419.091 97.158 418.257 96.198 417.405L94.785 416.088L93.309 414.616C93.08 414.382 92.779 414.088 92.611 413.902L92.053 413.287L90.922 412.036L88.746 409.597C87.332 407.993 85.925 406.396 84.528 404.811C81.774 401.664 79.105 398.631 76.496 395.78C71.279 390.089 66.284 385.164 61.508 381.469C59.124 379.618 56.813 378.022 54.615 376.768C52.426 375.488 50.364 374.536 48.587 373.776C46.79 373.051 45.371 372.528 44.29 372.196C43.232 371.871 42.666 371.67 42.666 371.67Z" fill="#2C285B"/>
</g>
<mask id="mask0_22_293" style="mask-type:luminance" maskUnits="userSpaceOnUse" x="6" y="0" width="653" height="500">
<path d="M658.333 0H6.53296V500H658.333V0Z" fill="white"/>
</mask>
<g mask="url(#mask0_22_293)">
<g opacity="0.05">
<path d="M434.333 306.001C434.333 306.001 435.178 305.424 436.761 304.341C437.558 303.808 438.488 303.095 439.599 302.321C440.693 301.5 441.96 300.577 443.351 299.507C446.125 297.336 449.496 294.701 453.36 291.678C457.281 288.654 461.826 285.255 467.371 281.995C470.171 280.401 473.194 278.826 476.563 277.502C476.981 277.33 477.401 277.158 477.822 276.985C478.257 276.837 478.693 276.689 479.132 276.54C480.03 276.249 480.857 275.95 481.844 275.664C483.487 275.192 484.947 274.685 487.095 274.254C489.14 273.753 491.051 273.512 493.053 273.224C495.05 273.032 497.083 272.835 499.135 272.803C503.242 272.664 507.405 273.006 511.491 273.548C515.592 274.073 519.57 274.941 523.462 275.839C527.357 276.728 531.154 277.678 534.879 278.612L536.274 278.949L536.972 279.118L537.321 279.202L537.409 279.224C537.542 279.255 536.561 279.027 537.02 279.131L537.203 279.164L540.133 279.701L541.602 279.971C542.106 280.069 542.472 280.087 542.915 280.15L545.45 280.518C547.156 280.752 548.997 280.881 550.763 281.058L553.428 281.163C554.317 281.204 555.206 281.253 556.082 281.211C557.84 281.193 559.607 281.241 561.326 281.072C562.187 281.005 563.063 280.986 563.914 280.886L566.448 280.541L567.716 280.376L568.942 280.109C569.758 279.932 570.582 279.787 571.403 279.629C572.213 279.448 572.983 279.19 573.777 278.982C574.556 278.746 575.381 278.593 576.109 278.269C577.597 277.681 579.147 277.2 580.511 276.44C581.216 276.098 581.95 275.797 582.639 275.436C583.303 275.037 583.965 274.639 584.625 274.243L585.626 273.658C585.949 273.45 586.238 273.199 586.547 272.974C587.161 272.516 587.774 272.059 588.383 271.604C588.704 271.393 588.986 271.137 589.253 270.868L590.094 270.098C590.654 269.584 591.236 269.093 591.789 268.573C592.295 268 592.798 267.43 593.3 266.861L594.063 266.013C594.327 265.739 594.575 265.45 594.78 265.124C595.223 264.498 595.666 263.875 596.104 263.256L596.789 262.338L596.962 262.109L597.048 261.995C597.104 261.9 596.719 262.636 596.901 262.289L596.944 262.215L597.283 261.624L597.959 260.447C598.192 260.046 598.322 259.779 598.511 259.439L599.037 258.472L599.566 257.4C600.277 255.98 600.913 254.506 601.57 253.041C604.123 247.142 606.157 240.882 608.765 234.99C610.093 232.056 611.525 229.191 613.254 226.6C614.983 224.017 616.942 221.682 619.086 219.839C623.394 216.108 627.968 214.384 631.586 213.526C635.245 212.664 638.122 212.637 640.047 212.574C641.974 212.634 643.001 212.665 643.001 212.665C643.001 212.665 642.05 213.03 640.268 213.715C638.532 214.472 635.953 215.492 633.083 217.257C630.235 219.033 627.13 221.519 624.803 225.041C622.446 228.553 620.916 233.108 619.763 238.654C618.557 244.182 617.693 250.668 615.842 257.845C615.388 259.642 614.853 261.465 614.222 263.318C613.671 265.054 612.73 267.398 612.113 268.892L611.854 269.523L611.822 269.602C611.979 269.305 611.574 270.094 611.596 270.045L611.502 270.22L611.313 270.57L610.551 271.976C610.024 272.909 609.492 273.846 608.959 274.789C608.706 275.268 608.401 275.722 608.074 276.165L607.117 277.515C606.468 278.415 605.816 279.319 605.162 280.226C604.441 281.086 603.675 281.92 602.919 282.771C602.141 283.6 601.431 284.512 600.546 285.247C599.682 286.007 598.815 286.769 597.943 287.534C597.502 287.909 597.074 288.309 596.614 288.662L595.196 289.675C594.241 290.345 593.283 291.017 592.322 291.691C591.335 292.315 590.305 292.862 589.287 293.448C587.254 294.653 585.088 295.499 582.932 296.432C581.86 296.933 580.747 297.231 579.644 297.616C578.537 297.97 577.431 298.37 576.314 298.676C575.193 298.948 574.072 299.234 572.942 299.488L571.246 299.868L569.548 300.129L566.143 300.637C565.007 300.784 563.878 300.84 562.744 300.942C560.469 301.174 558.222 301.187 555.967 301.208C554.836 301.233 553.722 301.164 552.608 301.1L549.265 300.911L545.963 300.557C544.856 300.42 543.787 300.347 542.643 300.138L539.261 299.581C538.72 299.477 538.094 299.384 537.625 299.27L536.17 298.936L533.267 298.27L533.086 298.229L532.516 298.094L532.424 298.068L532.055 297.961L531.319 297.748L529.847 297.322C525.944 296.202 522.21 294.986 518.627 293.865C515.04 292.762 511.595 291.759 508.29 290.944C504.977 290.131 501.772 289.615 498.643 289.255C497.075 289.064 495.529 289.018 493.99 288.951C492.468 288.981 490.887 288.962 489.532 289.056C488.254 289.05 486.404 289.344 484.766 289.546C484.117 289.623 483.341 289.77 482.639 289.875L481.561 290.037L480.491 290.258C477.63 290.767 474.869 291.655 472.168 292.491C466.783 294.286 461.768 296.431 457.236 298.321C452.704 300.221 448.654 301.869 445.241 303.032C441.85 304.221 439.078 304.972 437.216 305.406C435.335 305.793 434.333 306.001 434.333 306.001Z" fill="white"/>
<path d="M211 237.334C211 237.334 210.392 236.82 209.251 235.855C208.687 235.368 207.995 234.766 207.2 234.043C206.801 233.683 206.371 233.297 205.913 232.884C205.437 232.514 204.932 232.122 204.398 231.707C203.327 230.894 202.193 229.982 200.975 229.015C199.672 228.113 198.263 227.137 196.757 226.094C193.726 224.092 190.253 222.019 186.37 220.063C185.429 219.536 184.394 219.108 183.373 218.637C182.353 218.174 181.315 217.701 180.259 217.221C179.176 216.802 178.075 216.376 176.958 215.944C175.844 215.517 174.748 215.033 173.554 214.699C172.376 214.339 171.202 213.946 170.021 213.541C168.85 213.118 167.583 212.864 166.355 212.511C165.108 212.201 163.89 211.801 162.595 211.553C161.32 211.271 160.032 210.985 158.734 210.698C157.444 210.396 156.094 210.243 154.773 209.984C153.446 209.739 152.113 209.491 150.743 209.351C149.386 209.169 148.02 208.986 146.648 208.802C145.265 208.678 143.875 208.555 142.48 208.43C136.897 207.997 131.192 207.755 125.471 207.958L123.524 207.978L121.216 208.106L120.643 208.139L120.165 208.184L119.209 208.265L118.253 208.337L117.221 208.45C114.472 208.737 111.677 209.133 108.869 209.605C103.256 210.531 97.5609 211.714 91.9009 212.821C86.2469 213.94 80.5999 214.934 75.1349 215.658C69.6649 216.364 64.3459 216.717 59.4139 216.657C54.4789 216.591 49.9299 216.077 45.9939 215.254C42.0529 214.437 38.7349 213.298 36.1149 212.203C35.4649 211.919 34.8499 211.65 34.2709 211.397C33.6969 211.142 33.1779 210.84 32.6889 210.595C31.7139 210.096 30.9019 209.655 30.2669 209.239C28.9869 208.443 28.3309 208.001 28.3309 208.001C28.3309 208.001 29.1249 208.046 30.6129 208.13C31.3419 208.196 32.2559 208.207 33.3089 208.241C34.3579 208.288 35.5669 208.276 36.8999 208.262C39.5719 208.195 42.7559 208.039 46.3309 207.533C49.9059 207.039 53.8599 206.268 58.1179 205.138C60.2479 204.565 62.4559 203.993 64.7369 203.252C67.0149 202.551 69.3829 201.809 71.8099 200.972C76.7589 199.277 81.9769 197.49 87.3749 195.641C92.9009 193.814 98.7739 191.962 105.078 190.534C108.225 189.822 111.466 189.174 114.82 188.742C116.397 188.506 118.438 188.307 120.012 188.185L122.319 188.034L124.997 187.967C131.61 187.756 138.256 188.238 144.734 189.151C146.35 189.413 147.96 189.673 149.561 189.932C151.149 190.286 152.73 190.638 154.301 190.987C155.871 191.316 157.411 191.774 158.938 192.223C160.463 192.683 161.981 193.09 163.459 193.623C166.409 194.713 169.313 195.717 172.035 197.067C173.4 197.724 174.777 198.273 176.073 199C177.378 199.699 178.659 200.396 179.904 201.112C181.168 201.782 182.341 202.607 183.511 203.366C184.676 204.139 185.832 204.87 186.924 205.661C187.984 206.5 189.026 207.325 190.049 208.134C191.059 208.952 192.083 209.692 192.964 210.596C193.864 211.457 194.747 212.3 195.609 213.123C196.035 213.533 196.457 213.938 196.874 214.338C197.272 214.76 197.64 215.208 198.014 215.632C198.75 216.486 199.468 217.317 200.166 218.125C200.511 218.527 200.851 218.923 201.186 219.313C201.513 219.709 201.79 220.147 202.086 220.55C203.237 222.198 204.33 223.687 205.259 225.128C206.131 226.653 206.917 228.031 207.58 229.286C207.911 229.907 208.224 230.494 208.519 231.046C208.754 231.616 208.974 232.15 209.179 232.647C209.592 233.638 209.926 234.493 210.196 235.188C210.72 236.588 211 237.334 211 237.334Z" fill="white"/>
<path d="M545.666 97.336C545.666 97.336 545.858 96.712 546.22 95.541C546.6 94.382 547.16 92.687 547.929 90.59C548.689 88.476 549.661 85.944 550.874 83.063C552.086 80.183 553.578 76.964 555.453 73.498C557.342 70.045 559.652 66.34 562.572 62.648C565.494 58.97 569.008 55.3 573.054 52.008C573.567 51.608 574.081 51.206 574.599 50.803L575.378 50.197L575.772 49.896L575.969 49.746L576.069 49.671L576.225 49.563C577.211 48.86 578.081 48.194 579.256 47.419L580.926 46.318L582.526 45.288C583.587 44.632 584.652 43.973 585.722 43.312C589.955 40.747 594.122 38.366 597.883 35.938C601.685 33.536 605.018 31.051 607.663 28.484L608.61 27.516L608.849 27.276L609.175 26.91L609.783 26.23L611.008 24.888L611.618 24.22L612.048 23.681C612.611 22.954 613.212 22.332 613.797 21.554C614.372 20.737 614.979 19.943 615.574 19.144C617.824 15.862 619.777 12.41 621.409 8.907C623.07 5.418 624.464 1.899 625.614 -1.477C626.819 -4.837 627.79 -8.05 628.659 -10.941C629.522 -13.879 630.275 -16.439 630.894 -18.548C631.202 -19.618 631.484 -20.577 631.752 -21.414C631.994 -22.252 632.218 -22.967 632.403 -23.548C632.79 -24.711 632.996 -25.332 632.996 -25.332C632.996 -25.332 633.211 -24.711 633.565 -23.54C633.927 -22.37 634.409 -20.649 634.912 -18.437C635.425 -16.224 635.944 -13.519 636.366 -10.365C636.606 -8.788 636.704 -7.099 636.884 -5.305C636.974 -3.507 637.08 -1.613 637.054 0.389999C637.077 2.391 636.912 4.479 636.765 6.667C636.533 8.847 636.244 11.109 635.769 13.441C634.83 18.085 633.354 23.019 631.043 27.881C630.425 29.073 629.807 30.286 629.149 31.491C628.46 32.709 627.615 33.988 626.811 35.233C625.128 37.672 624.184 38.985 621.957 41.665C617.917 46.268 613.257 49.847 608.671 52.773C604.058 55.723 599.47 58.085 595.147 60.279C593.073 61.328 591.014 62.368 588.981 63.397C588.081 63.829 586.951 64.464 585.926 65.011C585.025 65.51 584.13 66.006 583.243 66.498C579.655 68.569 576.309 70.802 573.221 73.203C570.121 75.586 567.245 78.102 564.575 80.553C561.898 82.999 559.423 85.354 557.179 87.454C554.931 89.551 552.923 91.384 551.215 92.855C549.513 94.342 548.126 95.458 547.16 96.203C546.188 96.942 545.666 97.336 545.666 97.336Z" fill="white"/>
<path d="M243.666 374.669C243.666 374.669 241.327 376.607 237.234 379.996C235.219 381.674 232.812 383.724 230.134 386.1C227.452 388.468 224.503 391.175 221.449 394.206C218.389 397.224 215.215 400.562 212.14 404.193C211.367 405.1 210.638 406.049 209.856 406.968C209.102 407.908 208.385 408.885 207.639 409.851C206.957 410.856 206.223 411.84 205.543 412.853C204.884 413.877 204.175 414.887 203.567 415.941C201.029 420.113 198.903 424.519 197.647 428.984C196.299 433.446 195.942 437.928 196.347 442.361C196.636 444.577 197.009 446.796 197.73 448.995C197.911 449.544 198.037 450.102 198.252 450.646L198.887 452.287L199.196 453.111L199.215 453.163C199.152 453.037 199.383 453.518 199.079 452.893L199.139 453.018L199.258 453.266L199.496 453.763L199.971 454.755L200.205 455.251L200.411 455.661L201.209 457.256L202.136 458.96C202.765 460.098 203.395 461.232 204.084 462.355C205.425 464.614 206.849 466.845 208.323 469.085C211.266 473.555 214.33 478.05 217.13 482.622C219.908 487.197 222.366 491.895 224.053 496.548C224.901 498.863 225.553 501.171 226.037 503.374C226.459 505.604 226.815 507.709 226.892 509.715C227.131 513.708 226.751 517.125 226.227 519.836C225.931 521.193 225.684 522.384 225.342 523.399C225.041 524.417 224.777 525.267 224.495 525.945C223.969 527.302 223.664 528.003 223.664 528.003C223.664 528.003 223.551 527.244 223.339 525.821C223.138 524.416 222.782 522.369 222.208 519.887C221.586 517.408 220.726 514.497 219.354 511.427C218.002 508.35 216.166 505.128 213.75 501.866C212.548 500.232 211.257 498.555 209.772 496.876C208.312 495.187 206.779 493.435 205.077 491.656C201.757 488.055 197.978 484.232 194.177 479.839C192.269 477.655 190.369 475.301 188.515 472.802C187.588 471.558 186.688 470.246 185.793 468.922L184.489 466.884L183.165 464.651L182.843 464.099L182.578 463.618L182.054 462.651L181.791 462.167L181.66 461.925L181.594 461.804L181.369 461.333L180.827 460.122L179.756 457.683C179.411 456.863 179.15 455.989 178.848 455.14C177.615 451.748 176.915 448.089 176.454 444.421C175.732 437.029 176.748 429.453 179.226 422.857C181.611 416.19 185.229 410.467 189.176 405.604C193.127 400.719 197.489 396.705 201.817 393.311C206.158 389.924 210.499 387.174 214.612 384.912C218.733 382.658 222.627 380.89 226.147 379.525C229.665 378.158 232.781 377.145 235.389 376.45C236.038 376.274 236.653 376.108 237.231 375.953C237.819 375.817 238.371 375.69 238.884 375.572C239.905 375.331 240.773 375.155 241.481 375.035C242.907 374.796 243.666 374.669 243.666 374.669Z" fill="white"/>
</g>
</g>
<path d="M554.332 77.836C557.557 77.836 557.557 72.836 554.332 72.836C551.107 72.836 551.107 77.836 554.332 77.836Z" fill="white"/>
<path d="M610.999 54.503C614.224 54.503 614.224 49.503 610.999 49.503C607.774 49.503 607.774 54.503 610.999 54.503Z" fill="white"/>
<path d="M616.332 13.169C619.557 13.169 619.557 8.16901 616.332 8.16901C613.107 8.16901 613.107 13.169 616.332 13.169Z" fill="white"/>
<path d="M557.666 96.544C560.084 96.544 560.084 92.794 557.666 92.794C555.248 92.794 555.248 96.544 557.666 96.544Z" fill="white"/>
<path d="M572.999 55.211C575.417 55.211 575.417 51.461 572.999 51.461C570.581 51.461 570.581 55.211 572.999 55.211Z" fill="white"/>
<path d="M604.999 32.544C607.417 32.544 607.417 28.794 604.999 28.794C602.581 28.794 602.581 32.544 604.999 32.544Z" fill="white"/>
<path d="M623.666 24.294C625.762 24.294 625.762 21.044 623.666 21.044C621.57 21.044 621.57 24.294 623.666 24.294Z" fill="white"/>
<path d="M590.999 52.961C593.095 52.961 593.095 49.711 590.999 49.711C588.903 49.711 588.903 52.961 590.999 52.961Z" fill="white"/>
<path d="M574.332 76.294C576.428 76.294 576.428 73.044 574.332 73.044C572.236 73.044 572.236 76.294 574.332 76.294Z" fill="white"/>
<path d="M544.999 89.253C546.611 89.253 546.611 86.753 544.999 86.753C543.387 86.753 543.387 89.253 544.999 89.253Z" fill="white"/>
<path d="M568.999 65.919C570.611 65.919 570.611 63.419 568.999 63.419C567.387 63.419 567.387 65.919 568.999 65.919Z" fill="white"/>
<path d="M597.666 62.586C599.278 62.586 599.278 60.086 597.666 60.086C596.054 60.086 596.054 62.586 597.666 62.586Z" fill="white"/>
<path d="M593.666 40.586C595.278 40.586 595.278 38.086 593.666 38.086C592.054 38.086 592.054 40.586 593.666 40.586Z" fill="white"/>
<path d="M614.999 37.919C616.611 37.919 616.611 35.419 614.999 35.419C613.387 35.419 613.387 37.919 614.999 37.919Z" fill="white"/>
<path d="M580.999 61.003C582.289 61.003 582.289 59.003 580.999 59.003C579.709 59.003 579.709 61.003 580.999 61.003Z" fill="white"/>
<path d="M544.332 101.003C545.622 101.003 545.622 99.003 544.332 99.003C543.042 99.003 543.042 101.003 544.332 101.003Z" fill="white"/>
<path d="M581.666 46.336C582.956 46.336 582.956 44.336 581.666 44.336C580.376 44.336 580.376 46.336 581.666 46.336Z" fill="white"/>
<path d="M613.666 24.336C614.956 24.336 614.956 22.336 613.666 22.336C612.376 22.336 612.376 24.336 613.666 24.336Z" fill="white"/>
<path d="M604.332 45.669C605.622 45.669 605.622 43.669 604.332 43.669C603.042 43.669 603.042 45.669 604.332 45.669Z" fill="white"/>
<path d="M562.332 83.003C563.622 83.003 563.622 81.003 562.332 81.003C561.042 81.003 561.042 83.003 562.332 83.003Z" fill="white"/>
<path d="M560.332 69.419C561.3 69.419 561.3 67.919 560.332 67.919C559.364 67.919 559.364 69.419 560.332 69.419Z" fill="white"/>
<path d="M569.666 88.086C570.634 88.086 570.634 86.586 569.666 86.586C568.698 86.586 568.698 88.086 569.666 88.086Z" fill="white"/>
<path d="M552.999 86.086C553.967 86.086 553.967 84.586 552.999 84.586C552.031 84.586 552.031 86.086 552.999 86.086Z" fill="white"/>
<path d="M584.332 69.419C585.3 69.419 585.3 67.919 584.332 67.919C583.364 67.919 583.364 69.419 584.332 69.419Z" fill="white"/>
<path d="M594.332 31.419C595.3 31.419 595.3 29.919 594.332 29.919C593.364 29.919 593.364 31.419 594.332 31.419Z" fill="white"/>
<path d="M550.999 93.294C551.805 93.294 551.805 92.044 550.999 92.044C550.193 92.044 550.193 93.294 550.999 93.294Z" fill="white"/>
<path d="M564.332 73.294C565.138 73.294 565.138 72.044 564.332 72.044C563.526 72.044 563.526 73.294 564.332 73.294Z" fill="white"/>
<path d="M562.332 58.628C563.138 58.628 563.138 57.378 562.332 57.378C561.526 57.378 561.526 58.628 562.332 58.628Z" fill="white"/>
<path d="M590.332 68.628C591.138 68.628 591.138 67.378 590.332 67.378C589.526 67.378 589.526 68.628 590.332 68.628Z" fill="white"/>
<path d="M605.666 38.628C606.472 38.628 606.472 37.378 605.666 37.378C604.86 37.378 604.86 38.628 605.666 38.628Z" fill="white"/>
<path d="M605.666 15.294C606.472 15.294 606.472 14.044 605.666 14.044C604.86 14.044 604.86 15.294 605.666 15.294Z" fill="white"/>
<path d="M620.999 5.29401C621.805 5.29401 621.805 4.04401 620.999 4.04401C620.193 4.04401 620.193 5.29401 620.999 5.29401Z" fill="white"/>
<path d="M226.332 379.169C229.556 379.169 229.556 374.169 226.332 374.169C223.108 374.169 223.108 379.169 226.332 379.169Z" fill="white"/>
<path d="M208.999 411.169C212.223 411.169 212.223 406.169 208.999 406.169C205.775 406.169 205.775 411.169 208.999 411.169Z" fill="white"/>
<path d="M177.666 458.503C180.89 458.503 180.89 453.503 177.666 453.503C174.442 453.503 174.442 458.503 177.666 458.503Z" fill="white"/>
<path d="M223.666 493.169C226.89 493.169 226.89 488.169 223.666 488.169C220.442 488.169 220.442 493.169 223.666 493.169Z" fill="white"/>
<path d="M237.666 387.878C240.084 387.878 240.084 384.128 237.666 384.128C235.248 384.128 235.248 387.878 237.666 387.878Z" fill="white"/>
<path d="M208.332 391.211C210.751 391.211 210.751 387.461 208.332 387.461C205.914 387.461 205.914 391.211 208.332 391.211Z" fill="white"/>
<path d="M180.999 425.211C183.417 425.211 183.417 421.461 180.999 421.461C178.581 421.461 178.581 425.211 180.999 425.211Z" fill="white"/>
<path d="M201.666 450.544C204.085 450.544 204.085 446.794 201.666 446.794C199.248 446.794 199.248 450.544 201.666 450.544Z" fill="white"/>
<path d="M198.332 485.211C200.751 485.211 200.751 481.461 198.332 481.461C195.914 481.461 195.914 485.211 198.332 485.211Z" fill="white"/>
<path d="M221.666 390.961C223.762 390.961 223.762 387.711 221.666 387.711C219.57 387.711 219.57 390.961 221.666 390.961Z" fill="white"/>
<path d="M193.666 420.961C195.762 420.961 195.762 417.711 193.666 417.711C191.57 417.711 191.57 420.961 193.666 420.961Z" fill="white"/>
<path d="M189.666 466.294C191.762 466.294 191.762 463.044 189.666 463.044C187.57 463.044 187.57 466.294 189.666 466.294Z" fill="white"/>
<path d="M212.332 491.628C214.428 491.628 214.428 488.378 212.332 488.378C210.236 488.378 210.236 491.628 212.332 491.628Z" fill="white"/>
<path d="M244.999 374.586C246.611 374.586 246.611 372.086 244.999 372.086C243.387 372.086 243.387 374.586 244.999 374.586Z" fill="white"/>
<path d="M200.332 401.253C201.944 401.253 201.944 398.753 200.332 398.753C198.72 398.753 198.72 401.253 200.332 401.253Z" fill="white"/>
<path d="M193.666 436.586C195.278 436.586 195.278 434.086 193.666 434.086C192.054 434.086 192.054 436.586 193.666 436.586Z" fill="white"/>
<path d="M177.666 443.253C179.278 443.253 179.278 440.753 177.666 440.753C176.054 440.753 176.054 443.253 177.666 443.253Z" fill="white"/>
<path d="M204.999 469.919C206.611 469.919 206.611 467.419 204.999 467.419C203.387 467.419 203.387 469.919 204.999 469.919Z" fill="white"/>
<path d="M198.332 495.919C199.944 495.919 199.944 493.419 198.332 493.419C196.72 493.419 196.72 495.919 198.332 495.919Z" fill="white"/>
<path d="M234.332 379.669C235.622 379.669 235.622 377.669 234.332 377.669C233.042 377.669 233.042 379.669 234.332 379.669Z" fill="white"/>
<path d="M190.332 408.336C191.622 408.336 191.622 406.336 190.332 406.336C189.043 406.336 189.043 408.336 190.332 408.336Z" fill="white"/>
<path d="M186.332 435.003C187.622 435.003 187.622 433.003 186.332 433.003C185.042 433.003 185.042 435.003 186.332 435.003Z" fill="white"/>
<path d="M188.332 478.336C189.622 478.336 189.622 476.336 188.332 476.336C187.042 476.336 187.042 478.336 188.332 478.336Z" fill="white"/>
<path d="M214.999 479.003C216.289 479.003 216.289 477.003 214.999 477.003C213.71 477.003 213.71 479.003 214.999 479.003Z" fill="white"/>
<path d="M254.332 370.753C255.299 370.753 255.299 369.253 254.332 369.253C253.365 369.253 253.365 370.753 254.332 370.753Z" fill="white"/>
<path d="M212.999 395.419C213.966 395.419 213.966 393.919 212.999 393.919C212.032 393.919 212.032 395.419 212.999 395.419Z" fill="white"/>
<path d="M190.332 400.086C191.299 400.086 191.299 398.586 190.332 398.586C189.365 398.586 189.365 400.086 190.332 400.086Z" fill="white"/>
<path d="M201.666 426.086C202.633 426.086 202.633 424.586 201.666 424.586C200.699 424.586 200.699 426.086 201.666 426.086Z" fill="white"/>
<path d="M186.999 450.753C187.966 450.753 187.966 449.253 186.999 449.253C186.032 449.253 186.032 450.753 186.999 450.753Z" fill="white"/>
<path d="M179.666 470.753C180.633 470.753 180.633 469.253 179.666 469.253C178.699 469.253 178.699 470.753 179.666 470.753Z" fill="white"/>
<path d="M206.332 480.753C207.299 480.753 207.299 479.253 206.332 479.253C205.365 479.253 205.365 480.753 206.332 480.753Z" fill="white"/>
<path d="M236.999 371.294C237.805 371.294 237.805 370.044 236.999 370.044C236.193 370.044 236.193 371.294 236.999 371.294Z" fill="white"/>
<path d="M244.999 385.294C245.805 385.294 245.805 384.044 244.999 384.044C244.193 384.044 244.193 385.294 244.999 385.294Z" fill="white"/>
<path d="M227.666 396.628C228.472 396.628 228.472 395.378 227.666 395.378C226.86 395.378 226.86 396.628 227.666 396.628Z" fill="white"/>
<path d="M214.332 383.294C215.138 383.294 215.138 382.044 214.332 382.044C213.526 382.044 213.526 383.294 214.332 383.294Z" fill="white"/>
<path d="M206.999 401.961C207.805 401.961 207.805 400.711 206.999 400.711C206.193 400.711 206.193 401.961 206.999 401.961Z" fill="white"/>
<path d="M196.999 413.961C197.805 413.961 197.805 412.711 196.999 412.711C196.193 412.711 196.193 413.961 196.999 413.961Z" fill="white"/>
<path d="M180.999 415.294C181.805 415.294 181.805 414.044 180.999 414.044C180.193 414.044 180.193 415.294 180.999 415.294Z" fill="white"/>
<path d="M206.332 437.294C207.138 437.294 207.138 436.044 206.332 436.044C205.526 436.044 205.526 437.294 206.332 437.294Z" fill="white"/>
<path d="M174.332 434.628C175.138 434.628 175.138 433.378 174.332 433.378C173.526 433.378 173.526 434.628 174.332 434.628Z" fill="white"/>
<path d="M195.666 459.294C196.472 459.294 196.472 458.044 195.666 458.044C194.86 458.044 194.86 459.294 195.666 459.294Z" fill="white"/>
<path d="M196.999 473.294C197.805 473.294 197.805 472.044 196.999 472.044C196.193 472.044 196.193 473.294 196.999 473.294Z" fill="white"/>
<path d="M187.666 487.961C188.472 487.961 188.472 486.711 187.666 486.711C186.86 486.711 186.86 487.961 187.666 487.961Z" fill="white"/>
<path d="M233.666 495.294C234.472 495.294 234.472 494.044 233.666 494.044C232.86 494.044 232.86 495.294 233.666 495.294Z" fill="white"/>
<path d="M213.666 229.836C216.89 229.836 216.89 224.836 213.666 224.836C210.442 224.836 210.442 229.836 213.666 229.836Z" fill="white"/>
<path d="M179.666 222.503C182.89 222.503 182.89 217.503 179.666 217.503C176.442 217.503 176.442 222.503 179.666 222.503Z" fill="white"/>
<path d="M142.999 195.169C146.223 195.169 146.223 190.169 142.999 190.169C139.775 190.169 139.775 195.169 142.999 195.169Z" fill="white"/>
<path d="M174.332 199.878C176.75 199.878 176.75 196.128 174.332 196.128C171.914 196.128 171.914 199.878 174.332 199.878Z" fill="white"/>
<path d="M138.999 212.544C141.417 212.544 141.417 208.794 138.999 208.794C136.581 208.794 136.581 212.544 138.999 212.544Z" fill="white"/>
<path d="M212.332 239.628C214.428 239.628 214.428 236.378 212.332 236.378C210.236 236.378 210.236 239.628 212.332 239.628Z" fill="white"/>
<path d="M195.666 217.628C197.762 217.628 197.762 214.378 195.666 214.378C193.57 214.378 193.57 217.628 195.666 217.628Z" fill="white"/>
<path d="M159.666 204.294C161.762 204.294 161.762 201.044 159.666 201.044C157.57 201.044 157.57 204.294 159.666 204.294Z" fill="white"/>
<path d="M197.666 228.586C199.278 228.586 199.278 226.086 197.666 226.086C196.054 226.086 196.054 228.586 197.666 228.586Z" fill="white"/>
<path d="M182.332 211.253C183.944 211.253 183.944 208.753 182.332 208.753C180.72 208.753 180.72 211.253 182.332 211.253Z" fill="white"/>
<path d="M134.332 202.586C135.944 202.586 135.944 200.086 134.332 200.086C132.72 200.086 132.72 202.586 134.332 202.586Z" fill="white"/>
<path d="M206.999 221.003C208.289 221.003 208.289 219.003 206.999 219.003C205.71 219.003 205.71 221.003 206.999 221.003Z" fill="white"/>
<path d="M165.666 212.336C166.956 212.336 166.956 210.336 165.666 210.336C164.376 210.336 164.376 212.336 165.666 212.336Z" fill="white"/>
<path d="M155.666 193.003C156.956 193.003 156.956 191.003 155.666 191.003C154.376 191.003 154.376 193.003 155.666 193.003Z" fill="white"/>
<path d="M128.332 193.003C129.622 193.003 129.622 191.003 128.332 191.003C127.042 191.003 127.042 193.003 128.332 193.003Z" fill="white"/>
<path d="M220.332 238.753C221.299 238.753 221.299 237.253 220.332 237.253C219.365 237.253 219.365 238.753 220.332 238.753Z" fill="white"/>
<path d="M190.332 222.086C191.299 222.086 191.299 220.586 190.332 220.586C189.365 220.586 189.365 222.086 190.332 222.086Z" fill="white"/>
<path d="M188.999 204.753C189.966 204.753 189.966 203.253 188.999 203.253C188.032 203.253 188.032 204.753 188.999 204.753Z" fill="white"/>
<path d="M148.999 204.753C149.966 204.753 149.966 203.253 148.999 203.253C148.032 203.253 148.032 204.753 148.999 204.753Z" fill="white"/>
<path d="M204.999 229.294C205.805 229.294 205.805 228.044 204.999 228.044C204.193 228.044 204.193 229.294 204.999 229.294Z" fill="white"/>
<path d="M172.332 207.961C173.138 207.961 173.138 206.711 172.332 206.711C171.526 206.711 171.526 207.961 172.332 207.961Z" fill="white"/>
<path d="M140.999 201.294C141.805 201.294 141.805 200.044 140.999 200.044C140.193 200.044 140.193 201.294 140.999 201.294Z" fill="white"/>
<path d="M198.999 237.294C199.805 237.294 199.805 236.044 198.999 236.044C198.193 236.044 198.193 237.294 198.999 237.294Z" fill="white"/>
<path d="M199.666 211.294C200.472 211.294 200.472 210.044 199.666 210.044C198.86 210.044 198.86 211.294 199.666 211.294Z" fill="white"/>
<path d="M163.666 220.628C164.472 220.628 164.472 219.378 163.666 219.378C162.86 219.378 162.86 220.628 163.666 220.628Z" fill="white"/>
<path d="M165.666 194.628C166.472 194.628 166.472 193.378 165.666 193.378C164.86 193.378 164.86 194.628 165.666 194.628Z" fill="white"/>
<path d="M154.332 213.961C155.138 213.961 155.138 212.711 154.332 212.711C153.526 212.711 153.526 213.961 154.332 213.961Z" fill="white"/>
<path d="M136.999 187.961C137.805 187.961 137.805 186.711 136.999 186.711C136.193 186.711 136.193 187.961 136.999 187.961Z" fill="white"/>
<path d="M206.999 245.961C207.805 245.961 207.805 244.711 206.999 244.711C206.193 244.711 206.193 245.961 206.999 245.961Z" fill="white"/>
<path d="M218.999 249.294C219.805 249.294 219.805 248.044 218.999 248.044C218.193 248.044 218.193 249.294 218.999 249.294Z" fill="white"/>
<path d="M472.999 298.503C476.224 298.503 476.224 293.503 472.999 293.503C469.774 293.503 469.774 298.503 472.999 298.503Z" fill="white"/>
<path d="M523.666 281.169C526.891 281.169 526.891 276.169 523.666 276.169C520.441 276.169 520.441 281.169 523.666 281.169Z" fill="white"/>
<path d="M605.666 284.503C608.891 284.503 608.891 279.503 605.666 279.503C602.441 279.503 602.441 284.503 605.666 284.503Z" fill="white"/>
<path d="M603.666 241.211C606.084 241.211 606.084 237.461 603.666 237.461C601.248 237.461 601.248 241.211 603.666 241.211Z" fill="white"/>
<path d="M577.666 297.878C580.084 297.878 580.084 294.128 577.666 294.128C575.248 294.128 575.248 297.878 577.666 297.878Z" fill="white"/>
<path d="M499.666 275.211C502.084 275.211 502.084 271.461 499.666 271.461C497.248 271.461 497.248 275.211 499.666 275.211Z" fill="white"/>
<path d="M536.999 301.878C539.417 301.878 539.417 298.128 536.999 298.128C534.581 298.128 534.581 301.878 536.999 301.878Z" fill="white"/>
<path d="M450.999 290.544C453.417 290.544 453.417 286.794 450.999 286.794C448.581 286.794 448.581 290.544 450.999 290.544Z" fill="white"/>
<path d="M620.332 227.628C622.428 227.628 622.428 224.378 620.332 224.378C618.236 224.378 618.236 227.628 620.332 227.628Z" fill="white"/>
<path d="M595.666 272.294C597.762 272.294 597.762 269.044 595.666 269.044C593.57 269.044 593.57 272.294 595.666 272.294Z" fill="white"/>
<path d="M558.999 294.294C561.095 294.294 561.095 291.044 558.999 291.044C556.903 291.044 556.903 294.294 558.999 294.294Z" fill="white"/>
<path d="M481.666 284.294C483.762 284.294 483.762 281.044 481.666 281.044C479.57 281.044 479.57 284.294 481.666 284.294Z" fill="white"/>
<path d="M438.999 306.961C441.095 306.961 441.095 303.711 438.999 303.711C436.903 303.711 436.903 306.961 438.999 306.961Z" fill="white"/>
<path d="M609.666 255.253C611.278 255.253 611.278 252.753 609.666 252.753C608.054 252.753 608.054 255.253 609.666 255.253Z" fill="white"/>
<path d="M577.666 281.919C579.278 281.919 579.278 279.419 577.666 279.419C576.054 279.419 576.054 281.919 577.666 281.919Z" fill="white"/>
<path d="M539.666 291.253C541.278 291.253 541.278 288.753 539.666 288.753C538.054 288.753 538.054 291.253 539.666 291.253Z" fill="white"/>
<path d="M504.332 289.919C505.944 289.919 505.944 287.419 504.332 287.419C502.72 287.419 502.72 289.919 504.332 289.919Z" fill="white"/>
<path d="M462.999 290.586C464.611 290.586 464.611 288.086 462.999 288.086C461.387 288.086 461.387 290.586 462.999 290.586Z" fill="white"/>
<path d="M426.332 301.253C427.944 301.253 427.944 298.753 426.332 298.753C424.72 298.753 424.72 301.253 426.332 301.253Z" fill="white"/>
<path d="M556.332 280.586C557.944 280.586 557.944 278.086 556.332 278.086C554.72 278.086 554.72 280.586 556.332 280.586Z" fill="white"/>
<path d="M613.666 239.669C614.956 239.669 614.956 237.669 613.666 237.669C612.376 237.669 612.376 239.669 613.666 239.669Z" fill="white"/>
<path d="M615.666 216.336C616.956 216.336 616.956 214.336 615.666 214.336C614.376 214.336 614.376 216.336 615.666 216.336Z" fill="white"/>
<path d="M622.999 242.336C624.289 242.336 624.289 240.336 622.999 240.336C621.709 240.336 621.709 242.336 622.999 242.336Z" fill="white"/>
<path d="M587.666 265.669C588.956 265.669 588.956 263.669 587.666 263.669C586.376 263.669 586.376 265.669 587.666 265.669Z" fill="white"/>
<path d="M589.666 285.003C590.956 285.003 590.956 283.003 589.666 283.003C588.376 283.003 588.376 285.003 589.666 285.003Z" fill="white"/>
<path d="M536.999 281.003C538.289 281.003 538.289 279.003 536.999 279.003C535.709 279.003 535.709 281.003 536.999 281.003Z" fill="white"/>
<path d="M518.999 289.669C520.289 289.669 520.289 287.669 518.999 287.669C517.709 287.669 517.709 289.669 518.999 289.669Z" fill="white"/>
<path d="M494.332 284.336C495.622 284.336 495.622 282.336 494.332 282.336C493.042 282.336 493.042 284.336 494.332 284.336Z" fill="white"/>
<path d="M467.666 283.003C468.956 283.003 468.956 281.003 467.666 281.003C466.376 281.003 466.376 283.003 467.666 283.003Z" fill="white"/>
<path d="M447.666 300.336C448.956 300.336 448.956 298.336 447.666 298.336C446.376 298.336 446.376 300.336 447.666 300.336Z" fill="white"/>
<path d="M597.666 258.086C598.634 258.086 598.634 256.586 597.666 256.586C596.698 256.586 596.698 258.086 597.666 258.086Z" fill="white"/>
<path d="M614.999 264.086C615.967 264.086 615.967 262.586 614.999 262.586C614.031 262.586 614.031 264.086 614.999 264.086Z" fill="white"/>
<path d="M601.666 268.086C602.634 268.086 602.634 266.586 601.666 266.586C600.698 266.586 600.698 268.086 601.666 268.086Z" fill="white"/>
<path d="M566.999 284.753C567.967 284.753 567.967 283.253 566.999 283.253C566.031 283.253 566.031 284.753 566.999 284.753Z" fill="white"/>
<path d="M550.999 301.419C551.967 301.419 551.967 299.919 550.999 299.919C550.031 299.919 550.031 301.419 550.999 301.419Z" fill="white"/>
<path d="M508.999 278.753C509.967 278.753 509.967 277.253 508.999 277.253C508.031 277.253 508.031 278.753 508.999 278.753Z" fill="white"/>
<path d="M486.999 296.086C487.967 296.086 487.967 294.586 486.999 294.586C486.031 294.586 486.031 296.086 486.999 296.086Z" fill="white"/>
<path d="M458.332 303.419C459.3 303.419 459.3 301.919 458.332 301.919C457.364 301.919 457.364 303.419 458.332 303.419Z" fill="white"/>
<path d="M438.999 296.086C439.967 296.086 439.967 294.586 438.999 294.586C438.031 294.586 438.031 296.086 438.999 296.086Z" fill="white"/>
<path d="M610.999 229.294C611.805 229.294 611.805 228.044 610.999 228.044C610.193 228.044 610.193 229.294 610.999 229.294Z" fill="white"/>
<path d="M613.666 247.961C614.472 247.961 614.472 246.711 613.666 246.711C612.86 246.711 612.86 247.961 613.666 247.961Z" fill="white"/>
<path d="M608.332 270.628C609.138 270.628 609.138 269.378 608.332 269.378C607.526 269.378 607.526 270.628 608.332 270.628Z" fill="white"/>
<path d="M584.332 277.294C585.138 277.294 585.138 276.044 584.332 276.044C583.526 276.044 583.526 277.294 584.332 277.294Z" fill="white"/>
<path d="M572.999 291.961C573.805 291.961 573.805 290.711 572.999 290.711C572.193 290.711 572.193 291.961 572.999 291.961Z" fill="white"/>
<path d="M528.332 290.628C529.138 290.628 529.138 289.378 528.332 289.378C527.526 289.378 527.526 290.628 528.332 290.628Z" fill="white"/>
<path d="M482.999 275.294C483.805 275.294 483.805 274.044 482.999 274.044C482.193 274.044 482.193 275.294 482.999 275.294Z" fill="white"/>
<path d="M455.666 296.628C456.472 296.628 456.472 295.378 455.666 295.378C454.86 295.378 454.86 296.628 455.666 296.628Z" fill="white"/>
<path d="M447.666 313.294C448.472 313.294 448.472 312.044 447.666 312.044C446.86 312.044 446.86 313.294 447.666 313.294Z" fill="white"/>
<path d="M425.666 307.961C426.472 307.961 426.472 306.711 425.666 306.711C424.86 306.711 424.86 307.961 425.666 307.961Z" fill="white"/>
<path d="M514.332 298.628C515.138 298.628 515.138 297.378 514.332 297.378C513.526 297.378 513.526 298.628 514.332 298.628Z" fill="white"/>
<path d="M515.666 268.628C516.472 268.628 516.472 267.378 515.666 267.378C514.86 267.378 514.86 268.628 515.666 268.628Z" fill="white"/>
<path d="M592.999 296.628C593.805 296.628 593.805 295.378 592.999 295.378C592.193 295.378 592.193 296.628 592.999 296.628Z" fill="white"/>
<path d="M434.999 313.961C435.805 313.961 435.805 312.711 434.999 312.711C434.193 312.711 434.193 313.961 434.999 313.961Z" fill="white"/>
<path d="M184.472 139.613C185.768 143.372 183.773 147.47 180.014 148.767C176.254 150.064 172.157 148.067 170.86 144.308C169.563 140.55 171.559 136.451 175.318 135.154C179.076 133.857 183.176 135.854 184.472 139.613Z" fill="#AA6CD7"/>
<path d="M197.404 135.152C198.008 136.904 189.661 141.377 178.761 145.136C167.86 148.896 158.531 150.523 157.926 148.77C157.322 147.017 165.669 142.544 176.57 138.785C187.47 135.024 196.799 133.399 197.404 135.152Z" stroke="#723988" stroke-miterlimit="10"/>
<path d="M192.867 136.717C193.271 137.893 186.795 141.194 178.4 144.09C170.004 146.986 162.869 148.381 162.464 147.205C162.058 146.029 168.535 142.728 176.931 139.833C185.326 136.938 192.461 135.541 192.867 136.717Z" stroke="#723988" stroke-width="0.5" stroke-miterlimit="10"/>
<path d="M170.859 144.309C169.562 140.551 171.558 136.452 175.317 135.155C179.076 133.858 183.175 135.854 184.471 139.614" fill="#AA6CD7"/>
<path d="M471.647 369.545C470.271 374.32 465.284 377.078 460.507 375.702C455.731 374.326 452.974 369.338 454.35 364.562C455.726 359.786 460.713 357.029 465.49 358.405C470.267 359.781 473.023 364.769 471.647 369.545Z" fill="#CB5088"/>
<path d="M488.079 374.278C487.437 376.506 475.686 375.078 461.836 371.089C447.986 367.1 437.277 362.057 437.919 359.829C438.561 357.602 450.312 359.028 464.162 363.018C478.012 367.008 488.721 372.052 488.079 374.278Z" stroke="#BC3A74" stroke-miterlimit="10"/>
<path d="M482.314 372.617C481.882 374.111 472.886 372.831 462.22 369.758C451.552 366.686 443.253 362.985 443.683 361.49C444.115 359.996 453.111 361.276 463.777 364.349C474.445 367.422 482.744 371.124 482.314 372.617Z" stroke="#BC3A74" stroke-width="0.5" stroke-miterlimit="10"/>
<path d="M454.351 364.563C455.727 359.787 460.714 357.03 465.491 358.406C470.267 359.782 473.024 364.769 471.648 369.546" fill="#CB5088"/>
<path d="M220.538 345.695C219.055 350.9 205.821 351.691 190.98 347.463C176.138 343.234 165.31 335.586 166.792 330.381C168.275 325.176 181.509 324.385 196.351 328.613C211.192 332.843 222.021 340.49 220.538 345.695Z" stroke="#2C285B" stroke-width="1.12" stroke-miterlimit="10"/>
<path d="M213.014 343.552C211.947 347.299 202.418 347.869 191.733 344.823C181.048 341.779 173.251 336.271 174.318 332.524C175.386 328.776 184.915 328.207 195.6 331.252C206.285 334.297 214.082 339.803 213.014 343.552Z" stroke="#2C285B" stroke-width="1.12" stroke-miterlimit="10"/>
<path d="M206.436 341.677C205.731 344.151 199.442 344.528 192.389 342.518C185.337 340.508 180.192 336.872 180.897 334.4C181.602 331.926 187.89 331.55 194.942 333.559C201.994 335.568 207.141 339.203 206.436 341.677Z" stroke="#2C285B" stroke-width="1.12" stroke-miterlimit="10"/>
<path d="M197.032 338.997C196.662 340.298 194.853 340.924 192.994 340.394C191.136 339.865 189.93 338.379 190.3 337.079C190.671 335.777 192.479 335.152 194.337 335.682C196.196 336.211 197.402 337.695 197.032 338.997Z" fill="#2C285B"/>
<path d="M531.635 181.389C532.786 186.677 521.496 193.627 506.418 196.911C491.34 200.195 478.182 198.571 477.03 193.283C475.879 187.995 487.168 181.045 502.246 177.76C517.324 174.477 530.482 176.101 531.635 181.389Z" stroke="#2C285B" stroke-width="1.12" stroke-miterlimit="10"/>
<path d="M523.99 183.054C524.818 186.862 516.69 191.866 505.834 194.231C494.977 196.595 485.504 195.426 484.675 191.619C483.846 187.81 491.975 182.807 502.83 180.443C513.688 178.077 523.16 179.246 523.99 183.054Z" stroke="#2C285B" stroke-width="1.12" stroke-miterlimit="10"/>
<path d="M517.307 184.51C517.854 187.023 512.489 190.326 505.324 191.887C498.159 193.448 491.907 192.675 491.359 190.162C490.811 187.648 496.176 184.346 503.341 182.785C510.506 181.225 516.759 181.996 517.307 184.51Z" stroke="#2C285B" stroke-width="1.12" stroke-miterlimit="10"/>
<path d="M507.752 186.591C508.04 187.912 506.742 189.319 504.853 189.731C502.964 190.142 501.201 189.403 500.912 188.082C500.625 186.759 501.922 185.354 503.81 184.942C505.699 184.53 507.465 185.269 507.752 186.591Z" fill="#2C285B"/>
<g opacity="0.2">
<path d="M344.932 139.166C361.054 139.166 361.054 114.166 344.932 114.166C328.81 114.166 328.81 139.166 344.932 139.166Z" fill="white"/>
</g>
<g opacity="0.2">
<path d="M344.932 134.166C354.605 134.166 354.605 119.166 344.932 119.166C335.259 119.166 335.259 134.166 344.932 134.166Z" fill="white"/>
</g>
<g opacity="0.7">
<path d="M344.932 129.166C348.156 129.166 348.156 124.166 344.932 124.166C341.707 124.166 341.707 129.166 344.932 129.166Z" fill="white"/>
</g>
<g opacity="0.2">
<path d="M146.333 405.834C162.455 405.834 162.455 380.834 146.333 380.834C130.211 380.834 130.211 405.834 146.333 405.834Z" fill="white"/>
</g>
<g opacity="0.2">
<path d="M146.333 400.834C156.006 400.834 156.006 385.834 146.333 385.834C136.66 385.834 136.66 400.834 146.333 400.834Z" fill="white"/>
</g>
<g opacity="0.7">
<path d="M146.333 395.834C149.557 395.834 149.557 390.834 146.333 390.834C143.109 390.834 143.109 395.834 146.333 395.834Z" fill="white"/>
</g>
<g opacity="0.2">
<path d="M482.999 436.115C493.801 436.115 493.801 419.365 482.999 419.365C472.197 419.365 472.197 436.115 482.999 436.115Z" fill="white"/>
</g>
<g opacity="0.2">
<path d="M482.999 432.766C489.479 432.766 489.479 422.715 482.999 422.715C476.519 422.715 476.519 432.766 482.999 432.766Z" fill="white"/>
</g>
<g opacity="0.5">
<path d="M482.999 429.415C485.159 429.415 485.159 426.065 482.999 426.065C480.839 426.065 480.839 429.415 482.999 429.415Z" fill="white"/>
</g>
<path d="M571.666 185.17C574.891 185.17 574.891 180.17 571.666 180.17C568.441 180.17 568.441 185.17 571.666 185.17Z" fill="#CB5088"/>
<path d="M281.666 446.503C284.89 446.503 284.89 441.503 281.666 441.503C278.442 441.503 278.442 446.503 281.666 446.503Z" fill="#CB5088"/>
<path d="M160.333 33.17C163.557 33.17 163.557 28.17 160.333 28.17C157.109 28.17 157.109 33.17 160.333 33.17Z" fill="#4E6CCF"/>
<path d="M479 249.17C482.225 249.17 482.225 244.17 479 244.17C475.775 244.17 475.775 249.17 479 249.17Z" fill="#4E6CCF"/>
<path d="M377.666 171.837C380.891 171.837 380.891 166.837 377.666 166.837C374.442 166.837 374.442 171.837 377.666 171.837Z" fill="#C62370"/>
<path d="M361.666 356.503C364.89 356.503 364.89 351.503 361.666 351.503C358.442 351.503 358.442 356.503 361.666 356.503Z" fill="#4E6CCF"/>
<path d="M267.666 225.17C270.89 225.17 270.89 220.17 267.666 220.17C264.442 220.17 264.442 225.17 267.666 225.17Z" fill="#90CBD3"/>
<path d="M453.666 40.503C456.891 40.503 456.891 35.503 453.666 35.503C450.441 35.503 450.441 40.503 453.666 40.503Z" fill="#90CBD3"/>
<path d="M566.333 483.17C569.558 483.17 569.558 478.17 566.333 478.17C563.108 478.17 563.108 483.17 566.333 483.17Z" fill="#90CBD3"/>
<path d="M425 89.17C428.225 89.17 428.225 84.17 425 84.17C421.775 84.17 421.775 89.17 425 89.17Z" fill="#E8A73F"/>
<path d="M534.333 19.837C537.558 19.837 537.558 14.837 534.333 14.837C531.108 14.837 531.108 19.837 534.333 19.837Z" fill="#5A2980"/>
<path d="M275 149.17C278.224 149.17 278.224 144.17 275 144.17C271.776 144.17 271.776 149.17 275 149.17Z" fill="#5A2980"/>
<path d="M370.998 444.545C373.416 444.545 373.416 440.795 370.998 440.795C368.58 440.795 368.58 444.545 370.998 444.545Z" fill="#F3D37F"/>
<path d="M536.332 143.878C538.75 143.878 538.75 140.128 536.332 140.128C533.914 140.128 533.914 143.878 536.332 143.878Z" fill="#F3D37F"/>
<path d="M553.665 138.962C555.761 138.962 555.761 135.712 553.665 135.712C551.569 135.712 551.569 138.962 553.665 138.962Z" fill="#F3D37F"/>
<path d="M385.665 432.962C387.761 432.962 387.761 429.712 385.665 429.712C383.569 429.712 383.569 432.962 385.665 432.962Z" fill="#F3D37F"/>
<path d="M550.332 150.587C551.944 150.587 551.944 148.087 550.332 148.087C548.72 148.087 548.72 150.587 550.332 150.587Z" fill="#F3D37F"/>
<path d="M367.665 431.253C369.277 431.253 369.277 428.753 367.665 428.753C366.053 428.753 366.053 431.253 367.665 431.253Z" fill="#F3D37F"/>
<path d="M147 44.961C149.096 44.961 149.096 41.711 147 41.711C144.904 41.711 144.904 44.961 147 44.961Z" fill="white"/>
<path d="M433 100.294C435.096 100.294 435.096 97.044 433 97.044C430.904 97.044 430.904 100.294 433 100.294Z" fill="white"/>
<path d="M294.334 458.294C296.43 458.294 296.43 455.044 294.334 455.044C292.238 455.044 292.238 458.294 294.334 458.294Z" fill="white"/>
<path d="M358.334 78.961C360.43 78.961 360.43 75.711 358.334 75.711C356.238 75.711 356.238 78.961 358.334 78.961Z" fill="white"/>
<path d="M157.668 116.294C159.764 116.294 159.764 113.044 157.668 113.044C155.572 113.044 155.572 116.294 157.668 116.294Z" fill="white"/>
<path d="M349.668 308.961C351.764 308.961 351.764 305.711 349.668 305.711C347.572 305.711 347.572 308.961 349.668 308.961Z" fill="white"/>
<path d="M608.334 455.627C610.43 455.627 610.43 452.377 608.334 452.377C606.238 452.377 606.238 455.627 608.334 455.627Z" fill="white"/>
<path d="M286.334 372.961C288.43 372.961 288.43 369.711 286.334 369.711C284.238 369.711 284.238 372.961 286.334 372.961Z" fill="white"/>
<path d="M145.668 276.294C147.764 276.294 147.764 273.044 145.668 273.044C143.572 273.044 143.572 276.294 145.668 276.294Z" fill="white"/>
<path d="M578.334 344.294C580.43 344.294 580.43 341.044 578.334 341.044C576.238 341.044 576.238 344.294 578.334 344.294Z" fill="white"/>
<path d="M325.668 13.627C327.764 13.627 327.764 10.377 325.668 10.377C323.572 10.377 323.572 13.627 325.668 13.627Z" fill="white"/>
<path d="M305.668 174.294C307.764 174.294 307.764 171.044 305.668 171.044C303.572 171.044 303.572 174.294 305.668 174.294Z" fill="white"/>
<path d="M210.202 197.334L207.512 196.686L205.453 198.536L205.238 195.777L202.843 194.392L205.399 193.334L205.979 190.627L207.773 192.732L210.526 192.446L209.08 194.805L210.202 197.334Z" fill="white"/>
<path d="M409.824 393.334L407.163 391.685L404.296 392.942L405.042 389.902L402.961 387.565L406.082 387.334L407.663 384.632L408.846 387.53L411.904 388.198L409.514 390.219L409.824 393.334Z" fill="white"/>
<path d="M368.01 38.667L365.638 36.875L362.817 37.814L363.788 35.004L362.023 32.612L364.996 32.667L366.727 30.25L367.592 33.094L370.426 33.992L367.988 35.694L368.01 38.667Z" fill="white"/>
<path d="M543 237.334L540.035 236.329L537.527 238.201L537.566 235.071L535.011 233.264L538 232.334L538.929 229.345L540.736 231.9L543.867 231.86L541.994 234.369L543 237.334Z" fill="white"/>
<path d="M233.202 457.333L229.52 457.176L227.303 460.121L226.313 456.57L222.828 455.372L225.899 453.334L225.962 449.648L228.85 451.94L232.373 450.86L231.086 454.315L233.202 457.333Z" fill="white"/>
<path d="M586.332 121.007L583.895 117.574L579.991 116L583.424 113.563L584.998 109.659L587.435 113.092L591.339 114.666L587.906 117.104L586.332 121.007Z" stroke="white" stroke-miterlimit="10"/>
<path d="M499.166 330.666L497.043 326.784L493.161 324.661L497.043 322.538L499.166 318.656L501.289 322.538L505.171 324.661L501.289 326.784L499.166 330.666Z" stroke="white" stroke-miterlimit="10"/>
<path d="M159.666 310.667L158.016 307.65L155 306.001L158.016 304.352L159.666 301.335L161.315 304.352L164.332 306.001L161.315 307.65L159.666 310.667Z" stroke="white" stroke-miterlimit="10"/>
<path d="M264.999 24.667L263.35 21.65L260.333 20.001L263.35 18.352L264.999 15.335L266.648 18.352L269.665 20.001L266.648 21.65L264.999 24.667Z" stroke="white" stroke-miterlimit="10"/>
<path d="M238.507 122L239.214 125.959L243.173 126.666L239.214 127.373L238.507 131.332L237.8 127.373L233.841 126.666L237.8 125.959L238.507 122Z" stroke="white" stroke-miterlimit="10"/>
<path d="M303.875 399.888L304.582 403.847L308.541 404.554L304.582 405.261L303.875 409.22L303.168 405.261L299.209 404.554L303.168 403.847L303.875 399.888Z" stroke="white" stroke-miterlimit="10"/>
<path d="M526.666 464.884L527.373 468.843L531.332 469.55L527.373 470.257L526.666 474.216L525.959 470.257L522 469.55L525.959 468.843L526.666 464.884Z" stroke="white" stroke-miterlimit="10"/>
<path d="M479.994 141.961L480.701 145.92L484.66 146.627L480.701 147.334L479.994 151.293L479.287 147.334L475.328 146.627L479.287 145.92L479.994 141.961Z" stroke="white" stroke-miterlimit="10"/>
<path d="M234.332 277.337L234.832 281.137L238.373 279.67L235.332 282.003L238.373 284.336L234.832 282.869L234.332 286.669L233.832 282.869L230.291 284.336L233.332 282.003L230.291 279.67L233.832 281.137L234.332 277.337Z" fill="#F3D37F"/>
<path d="M396.007 324.661L396.507 328.461L400.048 326.994L397.007 329.327L400.048 331.66L396.507 330.193L396.007 333.993L395.507 330.193L391.966 331.66L395.007 329.327L391.966 326.994L395.507 328.461L396.007 324.661Z" fill="#F3D37F"/>
<path d="M614.999 159.088L615.499 162.888L619.04 161.421L615.999 163.754L619.04 166.087L615.499 164.62L614.999 168.42L614.499 164.62L610.958 166.087L613.999 163.754L610.958 161.421L614.499 162.888L614.999 159.088Z" fill="#F3D37F"/>
<path d="M296.999 70.67L297.499 74.47L301.04 73.003L297.999 75.336L301.04 77.669L297.499 76.202L296.999 80.002L296.499 76.202L292.958 77.669L295.999 75.336L292.958 73.003L296.499 74.47L296.999 70.67Z" fill="#F3D37F"/>
<path d="M254.332 178.449L254.92 182.307L258.77 181.674L255.283 183.424L257.075 186.891L254.332 184.115L251.59 186.891L253.381 183.424L249.894 181.674L253.744 182.307L254.332 178.449Z" fill="white"/>
<path d="M188.332 255.113L188.92 258.971L192.77 258.338L189.283 260.088L191.075 263.555L188.332 260.779L185.59 263.555L187.381 260.088L183.895 258.338L187.744 258.971L188.332 255.113Z" fill="white"/>
<path d="M349.668 384.762L350.256 388.619L354.105 387.986L350.619 389.736L352.41 393.203L349.668 390.428L346.925 393.203L348.717 389.736L345.23 387.986L349.08 388.619L349.668 384.762Z" fill="white"/>
<path d="M397.725 129.782L398.313 133.64L402.162 133.007L398.676 134.757L400.467 138.224L397.725 135.448L394.981 138.224L396.773 134.757L393.287 133.007L397.137 133.64L397.725 129.782Z" fill="white"/>
<path d="M472.002 68.448L472.59 72.306L476.439 71.673L472.953 73.423L474.744 76.89L472.002 74.114L469.259 76.89L471.051 73.423L467.564 71.673L471.414 72.306L472.002 68.448Z" fill="white"/>
<defs>
<linearGradient id="paint0_linear_22_293" x1="172.997" y1="599.88" x2="577.003" y2="-99.8798" gradientUnits="userSpaceOnUse">
<stop stop-color="#BC3A74" stop-opacity="0.8"/>
<stop offset="0.0417" stop-color="#AD3476" stop-opacity="0.8406"/>
<stop offset="0.1474" stop-color="#8C267C" stop-opacity="0.9435"/>
<stop offset="0.2054" stop-color="#80217E"/>
<stop offset="0.3724" stop-color="#672374"/>
<stop offset="0.6332" stop-color="#472666"/>
<stop offset="0.8519" stop-color="#33275E"/>
<stop offset="1" stop-color="#2C285B"/>
</linearGradient>
</defs>
</svg>
