<svg width="56" height="55" viewBox="0 0 56 55" fill="none" xmlns="http://www.w3.org/2000/svg">
<path fill-rule="evenodd" clip-rule="evenodd" d="M55.5 27.5C55.5 42.5442 43.0442 55 28 55C12.9829 55 0.5 42.5442 0.5 27.5C0.5 12.4829 12.9559 0 27.9731 0C43.0173 0 55.5 12.4829 55.5 27.5ZM41.7499 30.5466C41.7499 36.9633 37.3821 41.1692 30.8577 41.1692H27.2449C25.9508 41.1692 25.0881 40.3874 25.0881 39.1741C25.0881 37.9878 25.9239 37.152 27.1911 37.152H30.8577C34.9558 37.152 37.7327 34.5099 37.7327 30.5466C37.7327 26.8531 35.0097 24.3997 30.8846 24.3997H23.0121L20.2621 24.2649L21.5292 25.1814L24.7915 28.309C25.196 28.7134 25.4116 29.2255 25.4116 29.7917C25.4116 30.951 24.5488 31.8679 23.4435 31.8679C22.8234 31.8679 22.3381 31.652 21.9606 31.2747L14.8969 24.0491C14.3846 23.5639 14.1689 22.9707 14.1689 22.3506C14.1689 21.7574 14.4116 21.1374 14.8969 20.6521L21.9337 13.5074C22.3381 13.103 22.7964 12.8873 23.4165 12.8873C24.5757 12.8873 25.4116 13.804 25.4116 14.9633C25.4116 15.5295 25.196 16.0418 24.7915 16.4192L22.0685 19.0614L20.2351 20.4903L23.0121 20.3825H30.8846C37.4093 20.3825 41.7499 24.4266 41.7499 30.5466Z" fill="#2E052E"/>
</svg>
