<svg width="55" height="55" viewBox="0 0 55 55" fill="none" xmlns="http://www.w3.org/2000/svg">
<path fill-rule="evenodd" clip-rule="evenodd" d="M27.5 55C42.5442 55 55 42.5442 55 27.5C55 12.4829 42.5173 0 27.4731 0C12.4559 0 0 12.4829 0 27.5C0 42.5442 12.4829 55 27.5 55ZM30.3579 41.1691C36.8823 41.1691 41.2501 36.9633 41.2501 30.5465C41.2501 24.4266 36.9095 20.3824 30.3848 20.3824H22.5123L19.7353 20.4902L21.5687 19.0613L24.2917 16.4192C24.6962 16.0417 24.9118 15.5295 24.9118 14.9633C24.9118 13.804 24.0759 12.8873 22.9167 12.8873C22.2966 12.8873 21.8383 13.103 21.4339 13.5074L14.3971 20.652C13.9118 21.1373 13.6691 21.7574 13.6691 22.3505C13.6691 22.9707 13.8848 23.5638 14.3971 24.049L21.4608 31.2747C21.8383 31.652 22.3236 31.8678 22.9437 31.8678C24.049 31.8678 24.9118 30.951 24.9118 29.7917C24.9118 29.2255 24.6962 28.7134 24.2917 28.3089L21.0294 25.1814L19.7623 24.2648L22.5123 24.3996H30.3848C34.5099 24.3996 37.2329 26.8531 37.2329 30.5465C37.2329 34.5099 34.456 37.152 30.3579 37.152H26.6913C25.4241 37.152 24.5883 37.9878 24.5883 39.174C24.5883 40.3874 25.451 41.1691 26.7451 41.1691H30.3579Z" fill="#2E052E"/>
<path d="M41.2501 30.5465C41.2501 36.9633 36.8823 41.1691 30.3579 41.1691H26.7451C25.451 41.1691 24.5883 40.3874 24.5883 39.174C24.5883 37.9878 25.4241 37.152 26.6913 37.152H30.3579C34.456 37.152 37.2329 34.5099 37.2329 30.5465C37.2329 26.8531 34.5099 24.3996 30.3848 24.3996H22.5123L19.7623 24.2648L21.0294 25.1814L24.2917 28.3089C24.6962 28.7134 24.9118 29.2255 24.9118 29.7917C24.9118 30.951 24.049 31.8678 22.9437 31.8678C22.3236 31.8678 21.8383 31.652 21.4608 31.2747L14.3971 24.049C13.8848 23.5638 13.6691 22.9707 13.6691 22.3505C13.6691 21.7574 13.9118 21.1373 14.3971 20.652L21.4339 13.5074C21.8383 13.103 22.2966 12.8873 22.9167 12.8873C24.0759 12.8873 24.9118 13.804 24.9118 14.9633C24.9118 15.5295 24.6962 16.0417 24.2917 16.4192L21.5687 19.0613L19.7353 20.4902L22.5123 20.3824H30.3848C36.9095 20.3824 41.2501 24.4266 41.2501 30.5465Z" fill="#D7C2D7" fill-opacity="0.97"/>
</svg>
