<svg width="270" height="270" viewBox="0 0 270 270" fill="none" xmlns="http://www.w3.org/2000/svg">
<rect width="270" height="270" rx="63" fill="url(#paint0_linear_141_1787)"/>
<path d="M263.748 91.8111L263.748 91.811C263.183 90.1767 261.632 89.0231 259.404 88.2509C257.167 87.4751 254.147 87.0468 250.459 86.9313C243.077 86.7002 232.894 87.7201 220.65 89.8528C205.605 92.4733 187.413 96.7802 167.419 102.539C155.046 90.722 136.653 86.0616 119.365 92.0235C102.048 97.9935 90.4366 113.024 88.009 129.976C69.1749 137.609 52.5895 145.263 39.3873 152.329C28.4306 158.193 19.7836 163.664 14.1139 168.393C11.2813 170.756 9.16747 172.954 7.8841 174.943C6.60659 176.923 6.09627 178.788 6.65989 180.422L6.65997 180.422C7.22448 182.057 8.7762 183.21 11.0035 183.982C13.2411 184.757 16.2612 185.185 19.9491 185.3C27.3308 185.53 37.5139 184.509 49.7586 182.375C64.4284 179.818 82.0903 175.659 101.498 170.114C113.869 182.366 132.576 187.281 150.159 181.221L149.996 180.748L150.159 181.221C167.714 175.169 179.402 159.81 181.607 142.573C200.768 134.833 217.634 127.064 231.021 119.899C241.978 114.035 250.624 108.565 256.294 103.836C259.127 101.474 261.24 99.2766 262.524 97.288C263.801 95.3085 264.312 93.4449 263.748 91.8111ZM208.087 121.392C200.62 125.195 191.769 129.269 181.877 133.438C181.6 129.373 180.786 125.277 179.394 121.241C177.921 116.973 175.896 113.051 173.427 109.529C183.857 106.695 193.401 104.431 201.674 102.814C211.018 100.988 218.72 99.9905 224.237 99.9209C226.999 99.886 229.182 100.084 230.741 100.512C232.322 100.945 233.12 101.573 233.365 102.283C233.609 102.992 233.368 103.978 232.39 105.295C231.426 106.591 229.83 108.093 227.634 109.767C223.248 113.112 216.57 117.073 208.087 121.392ZM62.3195 150.842C69.5531 147.159 78.086 143.221 87.6062 139.188C87.8413 143.457 88.6656 147.763 90.1304 152.004C91.515 156.014 93.3861 159.717 95.655 163.071C85.7413 165.738 76.6555 167.878 68.7356 169.425C59.3908 171.25 51.6897 172.246 46.1735 172.314C43.4119 172.349 41.2291 172.15 39.6713 171.722C38.0898 171.288 37.2933 170.66 37.0487 169.95L37.0486 169.95C36.8034 169.24 37.0429 168.255 38.0201 166.939C38.9827 165.642 40.5784 164.141 42.7738 162.466C47.1589 159.122 53.8362 155.161 62.3195 150.842Z" fill="white" stroke="white"/>
<defs>
<linearGradient id="paint0_linear_141_1787" x1="135" y1="270" x2="135" y2="0" gradientUnits="userSpaceOnUse">
<stop stop-color="#2D1D85"/>
<stop offset="1" stop-color="#9E1D84"/>
</linearGradient>
</defs>
</svg>
