<svg width="592" height="39" viewBox="0 0 592 39" fill="none" xmlns="http://www.w3.org/2000/svg">
<path d="M16.6455 30.864C16.6455 29.8933 16.9815 29.072 17.6535 28.4C18.3255 27.728 19.1469 27.392 20.1175 27.392C21.0882 27.392 21.9095 27.728 22.5815 28.4C23.2535 29.072 23.5895 29.8933 23.5895 30.864C23.5895 31.8347 23.2535 32.656 22.5815 33.328C21.9095 34 21.0882 34.336 20.1175 34.336C19.1469 34.336 18.3255 34 17.6535 33.328C16.9815 32.656 16.6455 31.8347 16.6455 30.864ZM4.82953 35.904C4.26953 36.576 3.57886 36.912 2.75753 36.912C2.01086 36.912 1.3762 36.6507 0.853531 36.128C0.330865 35.6053 0.0695313 34.9707 0.0695313 34.224C0.0695313 33.552 0.256198 33.0107 0.629531 32.6L14.2375 14.288C14.8722 13.4293 15.7122 12.7387 16.7575 12.216C17.8029 11.656 18.9229 11.376 20.1175 11.376C21.2375 11.376 22.3015 11.6187 23.3095 12.104C24.3175 12.5893 25.1389 13.2613 25.7735 14.12L39.3815 32.32C39.6055 32.5813 39.7922 32.88 39.9415 33.216C40.0909 33.5147 40.1655 33.8507 40.1655 34.224C40.1655 34.9707 39.9042 35.6053 39.3815 36.128C38.8589 36.6507 38.2242 36.912 37.4775 36.912C36.5815 36.912 35.8722 36.5573 35.3495 35.848L22.3015 18.432C22.0402 18.1333 21.7042 17.816 21.2935 17.48C20.9202 17.1067 20.5282 16.92 20.1175 16.92C19.7069 16.92 19.2962 17.1067 18.8855 17.48C18.5122 17.816 18.2135 18.1333 17.9895 18.432L4.82953 35.904ZM53.2363 27.392C52.1909 27.392 51.2203 27.2053 50.3243 26.832C49.4283 26.4213 48.6443 25.88 47.9723 25.208C47.3003 24.536 46.7589 23.752 46.3483 22.856C45.9749 21.96 45.7883 20.9893 45.7883 19.944C45.7883 18.8987 45.9749 17.928 46.3483 17.032C46.7589 16.136 47.3003 15.352 47.9723 14.68C48.6443 14.008 49.4283 13.4853 50.3243 13.112C51.2203 12.7013 52.1909 12.496 53.2363 12.496H87.2283C87.975 12.496 88.6096 12.7573 89.1323 13.28C89.655 13.8027 89.9163 14.4373 89.9163 15.184C89.9163 15.9307 89.655 16.5653 89.1323 17.088C88.6096 17.6107 87.975 17.872 87.2283 17.872H53.1243C52.5643 17.872 52.0603 18.0773 51.6123 18.488C51.2016 18.8613 50.9963 19.3467 50.9963 19.944C50.9963 20.504 51.2016 20.9893 51.6123 21.4C52.0603 21.8107 52.5643 22.016 53.1243 22.016H84.0923C85.1376 22.016 86.1083 22.2213 87.0043 22.632C87.9376 23.0053 88.7403 23.528 89.4123 24.2C90.0843 24.872 90.607 25.6747 90.9803 26.608C91.391 27.504 91.5963 28.4747 91.5963 29.52C91.5963 30.5653 91.391 31.536 90.9803 32.432C90.607 33.328 90.0843 34.112 89.4123 34.784C88.7403 35.456 87.9376 35.9787 87.0043 36.352C86.1083 36.7253 85.1376 36.912 84.0923 36.912H50.1563C49.4096 36.912 48.7749 36.6507 48.2523 36.128C47.7296 35.6053 47.4683 34.9707 47.4683 34.224C47.4683 33.4773 47.7296 32.8427 48.2523 32.32C48.7749 31.7973 49.4096 31.536 50.1563 31.536H84.3163C84.8763 31.536 85.3616 31.3493 85.7723 30.976C86.183 30.5653 86.3883 30.08 86.3883 29.52C86.3883 28.9227 86.183 28.4187 85.7723 28.008C85.3616 27.5973 84.8763 27.392 84.3163 27.392H53.2363ZM138.411 12.496C139.157 12.496 139.792 12.7573 140.315 13.28C140.837 13.8027 141.099 14.4373 141.099 15.184C141.099 15.8933 140.856 16.5093 140.371 17.032C139.885 17.5173 139.307 17.7973 138.635 17.872H127.379C126.259 17.9467 125.325 18.2267 124.579 18.712C123.869 19.16 123.309 19.72 122.899 20.392C122.488 21.064 122.208 21.792 122.059 22.576C121.909 23.36 121.835 24.0693 121.835 24.704V34.224C121.835 34.9707 121.573 35.6053 121.051 36.128C120.528 36.6507 119.893 36.912 119.147 36.912C118.4 36.912 117.765 36.6507 117.243 36.128C116.72 35.6053 116.459 34.9707 116.459 34.224V24.704C116.459 23.5467 116.608 22.3893 116.907 21.232C117.205 20.0373 117.653 18.9173 118.251 17.872H99.8825C99.1359 17.872 98.5012 17.6107 97.9785 17.088C97.4559 16.5653 97.1945 15.9307 97.1945 15.184C97.1945 14.4373 97.4559 13.8027 97.9785 13.28C98.5012 12.7573 99.1359 12.496 99.8825 12.496H138.411ZM190.479 34.224C190.479 34.9707 190.217 35.6053 189.695 36.128C189.172 36.6507 188.537 36.912 187.791 36.912C187.417 36.912 187.081 36.8373 186.783 36.688C186.484 36.5387 186.204 36.352 185.943 36.128C185.719 35.904 185.551 35.7173 185.439 35.568C183.908 33.664 182.321 32.1707 180.679 31.088C179.073 30.0053 177.375 29.184 175.583 28.624C173.791 28.064 171.887 27.728 169.871 27.616C167.892 27.4667 165.764 27.392 163.487 27.392H152.063V34.224C152.063 34.9707 151.783 35.6053 151.223 36.128C150.7 36.6507 150.084 36.912 149.375 36.912C148.628 36.912 147.993 36.6507 147.471 36.128C146.948 35.6053 146.687 34.9707 146.687 34.224V19.832C146.687 18.712 146.892 17.704 147.303 16.808C147.713 15.912 148.236 15.1467 148.871 14.512C149.505 13.8773 150.233 13.392 151.055 13.056C151.876 12.6827 152.697 12.496 153.519 12.496H182.751C183.796 12.496 184.785 12.7013 185.719 13.112C186.652 13.4853 187.473 14.008 188.183 14.68C188.892 15.352 189.452 16.136 189.863 17.032C190.273 17.928 190.479 18.8987 190.479 19.944C190.479 20.6907 190.217 21.3253 189.695 21.848C189.172 22.3707 188.537 22.632 187.791 22.632C187.044 22.632 186.409 22.3707 185.887 21.848C185.364 21.3253 185.103 20.6907 185.103 19.944C185.103 19.384 184.897 18.9173 184.487 18.544C184.113 18.1707 183.665 17.9467 183.143 17.872H153.799C153.313 17.872 152.921 18.0027 152.623 18.264C152.324 18.488 152.137 18.768 152.063 19.104V22.016H163.487C166.772 22.016 169.74 22.2027 172.391 22.576C175.041 22.9493 177.431 23.5653 179.559 24.424C181.724 25.2453 183.647 26.3467 185.327 27.728C187.044 29.072 188.575 30.7333 189.919 32.712C190.292 33.1973 190.479 33.7013 190.479 34.224ZM230.174 31.536C231.443 31.536 232.488 31.312 233.31 30.864C234.131 30.3787 234.766 29.8 235.214 29.128C235.699 28.456 236.016 27.728 236.166 26.944C236.352 26.1227 236.446 25.376 236.446 24.704C236.446 24.032 236.352 23.304 236.166 22.52C236.016 21.6987 235.699 20.952 235.214 20.28C234.766 19.608 234.131 19.048 233.31 18.6C232.488 18.1147 231.443 17.872 230.174 17.872H207.55C206.243 17.872 205.179 18.1147 204.358 18.6C203.574 19.048 202.939 19.608 202.454 20.28C202.006 20.952 201.688 21.6987 201.502 22.52C201.352 23.304 201.278 24.032 201.278 24.704C201.278 25.376 201.352 26.1227 201.502 26.944C201.688 27.728 202.006 28.456 202.454 29.128C202.939 29.8 203.574 30.3787 204.358 30.864C205.179 31.312 206.243 31.536 207.55 31.536H230.174ZM241.654 24.704C241.654 26.1227 241.411 27.56 240.926 29.016C240.478 30.4347 239.806 31.7413 238.91 32.936C238.014 34.0933 236.931 35.0453 235.662 35.792C234.392 36.5387 232.955 36.912 231.35 36.912H205.814C204.283 36.8373 202.92 36.4267 201.726 35.68C200.531 34.896 199.504 33.9253 198.646 32.768C197.824 31.6107 197.19 30.3227 196.742 28.904C196.294 27.4853 196.07 26.0853 196.07 24.704C196.07 23.2853 196.294 21.8667 196.742 20.448C197.227 18.992 197.918 17.6853 198.814 16.528C199.71 15.3333 200.792 14.3627 202.062 13.616C203.331 12.8693 204.768 12.496 206.374 12.496H231.91C233.44 12.5707 234.803 13 235.998 13.784C237.192 14.5307 238.2 15.4827 239.022 16.64C239.88 17.7973 240.534 19.0853 240.982 20.504C241.43 21.9227 241.654 23.3227 241.654 24.704ZM281.171 13.504C281.731 12.832 282.422 12.496 283.243 12.496C283.99 12.496 284.624 12.7573 285.147 13.28C285.67 13.8027 285.931 14.4373 285.931 15.184C285.931 15.856 285.744 16.3973 285.371 16.808L285.315 16.864L271.763 35.12C271.091 35.9787 270.232 36.688 269.187 37.248C268.179 37.7707 267.078 38.032 265.883 38.032C264.763 38.032 263.699 37.7893 262.691 37.304C261.72 36.8187 260.899 36.1467 260.227 35.288L246.619 17.088C246.395 16.8267 246.208 16.5467 246.059 16.248C245.91 15.912 245.835 15.5573 245.835 15.184C245.835 14.4373 246.096 13.8027 246.619 13.28C247.142 12.7573 247.776 12.496 248.523 12.496C249.419 12.496 250.128 12.8507 250.651 13.56L263.699 30.976C263.96 31.2747 264.278 31.6107 264.651 31.984C265.062 32.32 265.472 32.488 265.883 32.488C266.294 32.488 266.686 32.32 267.059 31.984C267.47 31.6107 267.787 31.2747 268.011 30.976L281.171 13.504ZM328.805 22.016C329.552 22.016 330.186 22.2773 330.709 22.8C331.232 23.3227 331.493 23.9573 331.493 24.704C331.493 25.4507 331.232 26.0853 330.709 26.608C330.186 27.1307 329.552 27.392 328.805 27.392H300.917C300.17 27.392 299.536 27.1307 299.013 26.608C298.49 26.0853 298.229 25.4507 298.229 24.704C298.229 23.9573 298.49 23.3227 299.013 22.8C299.536 22.2773 300.17 22.016 300.917 22.016H328.805ZM300.301 17.872C298.994 17.872 297.93 18.1147 297.109 18.6C296.325 19.048 295.69 19.608 295.205 20.28C294.757 20.952 294.44 21.6987 294.253 22.52C294.104 23.304 294.029 24.032 294.029 24.704C294.029 25.376 294.104 26.1227 294.253 26.944C294.44 27.728 294.757 28.456 295.205 29.128C295.69 29.8 296.325 30.3787 297.109 30.864C297.93 31.312 298.994 31.536 300.301 31.536H331.157C331.904 31.536 332.538 31.7973 333.061 32.32C333.584 32.8427 333.845 33.4773 333.845 34.224C333.845 34.9707 333.584 35.6053 333.061 36.128C332.538 36.6507 331.904 36.912 331.157 36.912H298.509C296.978 36.912 295.616 36.5387 294.421 35.792C293.226 35.0453 292.2 34.0933 291.341 32.936C290.52 31.7413 289.885 30.416 289.437 28.96C288.989 27.504 288.765 26.0853 288.765 24.704C288.765 23.2853 288.989 21.8667 289.437 20.448C289.922 18.992 290.613 17.6853 291.509 16.528C292.405 15.3333 293.488 14.3627 294.757 13.616C296.026 12.8693 297.464 12.496 299.069 12.496H331.157C331.904 12.496 332.538 12.7573 333.061 13.28C333.584 13.8027 333.845 14.4373 333.845 15.184C333.845 15.9307 333.584 16.5653 333.061 17.088C332.538 17.6107 331.904 17.872 331.157 17.872H300.301ZM383.252 34.224C383.252 34.9707 382.991 35.6053 382.468 36.128C381.945 36.6507 381.311 36.912 380.564 36.912C380.191 36.912 379.855 36.8373 379.556 36.688C379.257 36.5387 378.977 36.352 378.716 36.128C378.492 35.904 378.324 35.7173 378.212 35.568C376.681 33.664 375.095 32.1707 373.452 31.088C371.847 30.0053 370.148 29.184 368.356 28.624C366.564 28.064 364.66 27.728 362.644 27.616C360.665 27.4667 358.537 27.392 356.26 27.392H344.836V34.224C344.836 34.9707 344.556 35.6053 343.996 36.128C343.473 36.6507 342.857 36.912 342.148 36.912C341.401 36.912 340.767 36.6507 340.244 36.128C339.721 35.6053 339.46 34.9707 339.46 34.224V19.832C339.46 18.712 339.665 17.704 340.076 16.808C340.487 15.912 341.009 15.1467 341.644 14.512C342.279 13.8773 343.007 13.392 343.828 13.056C344.649 12.6827 345.471 12.496 346.292 12.496H375.524C376.569 12.496 377.559 12.7013 378.492 13.112C379.425 13.4853 380.247 14.008 380.956 14.68C381.665 15.352 382.225 16.136 382.636 17.032C383.047 17.928 383.252 18.8987 383.252 19.944C383.252 20.6907 382.991 21.3253 382.468 21.848C381.945 22.3707 381.311 22.632 380.564 22.632C379.817 22.632 379.183 22.3707 378.66 21.848C378.137 21.3253 377.876 20.6907 377.876 19.944C377.876 19.384 377.671 18.9173 377.26 18.544C376.887 18.1707 376.439 17.9467 375.916 17.872H346.572C346.087 17.872 345.695 18.0027 345.396 18.264C345.097 18.488 344.911 18.768 344.836 19.104V22.016H356.26C359.545 22.016 362.513 22.2027 365.164 22.576C367.815 22.9493 370.204 23.5653 372.332 24.424C374.497 25.2453 376.42 26.3467 378.1 27.728C379.817 29.072 381.348 30.7333 382.692 32.712C383.065 33.1973 383.252 33.7013 383.252 34.224ZM396.291 27.392C395.246 27.392 394.275 27.2053 393.379 26.832C392.483 26.4213 391.699 25.88 391.027 25.208C390.355 24.536 389.814 23.752 389.403 22.856C389.03 21.96 388.843 20.9893 388.843 19.944C388.843 18.8987 389.03 17.928 389.403 17.032C389.814 16.136 390.355 15.352 391.027 14.68C391.699 14.008 392.483 13.4853 393.379 13.112C394.275 12.7013 395.246 12.496 396.291 12.496H430.283C431.03 12.496 431.664 12.7573 432.187 13.28C432.71 13.8027 432.971 14.4373 432.971 15.184C432.971 15.9307 432.71 16.5653 432.187 17.088C431.664 17.6107 431.03 17.872 430.283 17.872H396.179C395.619 17.872 395.115 18.0773 394.667 18.488C394.256 18.8613 394.051 19.3467 394.051 19.944C394.051 20.504 394.256 20.9893 394.667 21.4C395.115 21.8107 395.619 22.016 396.179 22.016H427.147C428.192 22.016 429.163 22.2213 430.059 22.632C430.992 23.0053 431.795 23.528 432.467 24.2C433.139 24.872 433.662 25.6747 434.035 26.608C434.446 27.504 434.651 28.4747 434.651 29.52C434.651 30.5653 434.446 31.536 434.035 32.432C433.662 33.328 433.139 34.112 432.467 34.784C431.795 35.456 430.992 35.9787 430.059 36.352C429.163 36.7253 428.192 36.912 427.147 36.912H393.211C392.464 36.912 391.83 36.6507 391.307 36.128C390.784 35.6053 390.523 34.9707 390.523 34.224C390.523 33.4773 390.784 32.8427 391.307 32.32C391.83 31.7973 392.464 31.536 393.211 31.536H427.371C427.931 31.536 428.416 31.3493 428.827 30.976C429.238 30.5653 429.443 30.08 429.443 29.52C429.443 28.9227 429.238 28.4187 428.827 28.008C428.416 27.5973 427.931 27.392 427.371 27.392H396.291ZM456.825 30.864C456.825 29.8933 457.161 29.072 457.833 28.4C458.505 27.728 459.327 27.392 460.297 27.392C461.268 27.392 462.089 27.728 462.761 28.4C463.433 29.072 463.769 29.8933 463.769 30.864C463.769 31.8347 463.433 32.656 462.761 33.328C462.089 34 461.268 34.336 460.297 34.336C459.327 34.336 458.505 34 457.833 33.328C457.161 32.656 456.825 31.8347 456.825 30.864ZM445.009 35.904C444.449 36.576 443.759 36.912 442.937 36.912C442.191 36.912 441.556 36.6507 441.033 36.128C440.511 35.6053 440.249 34.9707 440.249 34.224C440.249 33.552 440.436 33.0107 440.809 32.6L454.417 14.288C455.052 13.4293 455.892 12.7387 456.937 12.216C457.983 11.656 459.103 11.376 460.297 11.376C461.417 11.376 462.481 11.6187 463.489 12.104C464.497 12.5893 465.319 13.2613 465.953 14.12L479.561 32.32C479.785 32.5813 479.972 32.88 480.121 33.216C480.271 33.5147 480.345 33.8507 480.345 34.224C480.345 34.9707 480.084 35.6053 479.561 36.128C479.039 36.6507 478.404 36.912 477.657 36.912C476.761 36.912 476.052 36.5573 475.529 35.848L462.481 18.432C462.22 18.1333 461.884 17.816 461.473 17.48C461.1 17.1067 460.708 16.92 460.297 16.92C459.887 16.92 459.476 17.1067 459.065 17.48C458.692 17.816 458.393 18.1333 458.169 18.432L445.009 35.904ZM463.265 1.24C463.9 0.866665 464.572 0.791998 465.281 1.016C465.991 1.20266 466.532 1.61333 466.905 2.248C467.279 2.88267 467.372 3.55467 467.185 4.264C466.999 4.97333 466.588 5.51467 465.953 5.888L457.665 10.648C457.031 11.0213 456.359 11.1147 455.649 10.928C454.94 10.704 454.399 10.2747 454.025 9.64C453.652 9.00533 453.559 8.33333 453.745 7.624C453.932 6.91467 454.343 6.37333 454.977 6L463.265 1.24ZM529.76 34.224C529.76 34.9707 529.499 35.6053 528.976 36.128C528.453 36.6507 527.819 36.912 527.072 36.912C526.699 36.912 526.363 36.8373 526.064 36.688C525.765 36.5387 525.485 36.352 525.224 36.128C525 35.904 524.832 35.7173 524.72 35.568C523.189 33.664 521.603 32.1707 519.96 31.088C518.355 30.0053 516.656 29.184 514.864 28.624C513.072 28.064 511.168 27.728 509.152 27.616C507.173 27.4667 505.045 27.392 502.768 27.392H491.344V34.224C491.344 34.9707 491.064 35.6053 490.504 36.128C489.981 36.6507 489.365 36.912 488.656 36.912C487.909 36.912 487.275 36.6507 486.752 36.128C486.229 35.6053 485.968 34.9707 485.968 34.224V19.832C485.968 18.712 486.173 17.704 486.584 16.808C486.995 15.912 487.517 15.1467 488.152 14.512C488.787 13.8773 489.515 13.392 490.336 13.056C491.157 12.6827 491.979 12.496 492.8 12.496H522.032C523.077 12.496 524.067 12.7013 525 13.112C525.933 13.4853 526.755 14.008 527.464 14.68C528.173 15.352 528.733 16.136 529.144 17.032C529.555 17.928 529.76 18.8987 529.76 19.944C529.76 20.6907 529.499 21.3253 528.976 21.848C528.453 22.3707 527.819 22.632 527.072 22.632C526.325 22.632 525.691 22.3707 525.168 21.848C524.645 21.3253 524.384 20.6907 524.384 19.944C524.384 19.384 524.179 18.9173 523.768 18.544C523.395 18.1707 522.947 17.9467 522.424 17.872H493.08C492.595 17.872 492.203 18.0027 491.904 18.264C491.605 18.488 491.419 18.768 491.344 19.104V22.016H502.768C506.053 22.016 509.021 22.2027 511.672 22.576C514.323 22.9493 516.712 23.5653 518.84 24.424C521.005 25.2453 522.928 26.3467 524.608 27.728C526.325 29.072 527.856 30.7333 529.2 32.712C529.573 33.1973 529.76 33.7013 529.76 34.224ZM540.727 34.224C540.727 34.9707 540.465 35.6053 539.943 36.128C539.42 36.6507 538.785 36.912 538.039 36.912C537.292 36.912 536.657 36.6507 536.135 36.128C535.612 35.6053 535.351 34.9707 535.351 34.224V15.184C535.351 14.4373 535.612 13.8027 536.135 13.28C536.657 12.7573 537.292 12.496 538.039 12.496C538.785 12.496 539.42 12.7573 539.943 13.28C540.465 13.8027 540.727 14.4373 540.727 15.184V34.224ZM580.447 31.536C581.716 31.536 582.762 31.312 583.583 30.864C584.404 30.3787 585.039 29.8 585.487 29.128C585.972 28.456 586.29 27.728 586.439 26.944C586.626 26.1227 586.719 25.376 586.719 24.704C586.719 24.032 586.626 23.304 586.439 22.52C586.29 21.6987 585.972 20.952 585.487 20.28C585.039 19.608 584.404 19.048 583.583 18.6C582.762 18.1147 581.716 17.872 580.447 17.872H557.823C556.516 17.872 555.452 18.1147 554.631 18.6C553.847 19.048 553.212 19.608 552.727 20.28C552.279 20.952 551.962 21.6987 551.775 22.52C551.626 23.304 551.551 24.032 551.551 24.704C551.551 25.376 551.626 26.1227 551.775 26.944C551.962 27.728 552.279 28.456 552.727 29.128C553.212 29.8 553.847 30.3787 554.631 30.864C555.452 31.312 556.516 31.536 557.823 31.536H580.447ZM591.927 24.704C591.927 26.1227 591.684 27.56 591.199 29.016C590.751 30.4347 590.079 31.7413 589.183 32.936C588.287 34.0933 587.204 35.0453 585.935 35.792C584.666 36.5387 583.228 36.912 581.623 36.912H556.087C554.556 36.8373 553.194 36.4267 551.999 35.68C550.804 34.896 549.778 33.9253 548.919 32.768C548.098 31.6107 547.463 30.3227 547.015 28.904C546.567 27.4853 546.343 26.0853 546.343 24.704C546.343 23.2853 546.567 21.8667 547.015 20.448C547.5 18.992 548.191 17.6853 549.087 16.528C549.983 15.3333 551.066 14.3627 552.335 13.616C553.604 12.8693 555.042 12.496 556.647 12.496H582.183C583.714 12.5707 585.076 13 586.271 13.784C587.466 14.5307 588.474 15.4827 589.295 16.64C590.154 17.7973 590.807 19.0853 591.255 20.504C591.703 21.9227 591.927 23.3227 591.927 24.704Z" fill="#FAEDFA" fill-opacity="0.2"/>
</svg>
